<?xml version="1.0" encoding="utf-8"?>
<!-- Generator: Adobe Illustrator 19.2.1, SVG Export Plug-In . SVG Version: 6.00 Build 0)  -->
<svg version="1.1" id="facebook-alt" xmlns="http://www.w3.org/2000/svg" xmlns:xlink="http://www.w3.org/1999/xlink" x="0px"
	 y="0px" viewBox="0 0 34.0161 34.0156" enable-background="new 0 0 34.0161 34.0156" xml:space="preserve">
<path fill="#595084" d="M17.0078,0C7.6147,0,0,7.6152,0,17.0078c0,9.3936,7.6147,17.0078,17.0078,17.0078
	c9.393,0,17.0083-7.6142,17.0083-17.0078C34.0161,7.6152,26.4008,0,17.0078,0z M20.7632,14.1279l-0.1958,2.5445H17.959v8.8393
	h-3.2959v-8.8393h-1.7583v-2.5445h1.7583V12.419c0-0.7535,0.019-1.9156,0.5664-2.6353c0.5766-0.7622,1.3681-1.2803,2.7295-1.2803
	c2.2182,0,3.1523,0.3164,3.1523,0.3164l-0.4395,2.605c0,0-0.7329-0.2119-1.4165-0.2119c-0.684,0-1.2963,0.2451-1.2963,0.9287v1.9863
	H20.7632z"/>
</svg>
