<svg xmlns="http://www.w3.org/2000/svg" viewBox="0 0 319.73 351.46"><defs><style>.a,.f{fill:#57bbaa;}.b,.e{opacity:0.6;}.c{fill:#575452;}.d,.e{fill:none;}.d,.f{stroke:#57bbaa;}.d,.e,.f{stroke-miterlimit:10;stroke-width:4px;}.e{stroke:#8b8987;}</style></defs><title>manchester-homelessness-partnership-logo</title><path class="a" d="M304.79,197.23q0.56-.54.79-0.31l0.08-.07q-0.22-.23-0.09-0.36l0.08-.08,0.15,0.16a55.47,55.47,0,0,1,5.56,4.4v0.15h0.15l0.22,0.23v0.15H312l0.22,0.23,0.32,0.48,0.14-.13v-0.15l0.23,0.23a6.12,6.12,0,0,0,1.81,1.45l0.07,0.08,0,0.13,1.26,0.92-0.14.13,0.15,0.16,0.14-.13,0.45,0.47,0.32,0.18q1.69,1.56,1.87,1.39l0.17,0.29,0.51,0.41,0.24,0.37,0.38,0.12,0.15,0.31,1,0.65-0.08.07,1.06,0.82,0,0.13,0.6,0.35,0.15,0.31,0.89,0.49,0.15,0.31,0.07,0.08h0.15l0.09,0.1v0.15a3.92,3.92,0,0,1,1.49,1l0.09,0.1,0,0.13,1.79,1.31,0.16,0.44,0.07,0.08,0.08-.07,0-.13,0.45,0.47,0.48,0.62,0.06-.06,0.3,0.16,0.13,0,0.08-.07-0.07-.08h-0.15l-0.33-.62L329,215.1l-0.06.06v0.15l-0.91-1.22,0.08-.08,0.13,0,0.08-.07-0.15-.16a0.29,0.29,0,0,1-.46,0l-1.38-1.86-0.6-.62,0.14-.13-0.13,0L324.91,210l-0.3-.16-0.24-.52-0.06.06-1.47-2.11,0.13,0V207l-0.35.18a6.36,6.36,0,0,0-.85-1.31l-0.08.07-4-5.4-0.06.06-1.86-2.48-0.08.08-3.37-4.67q-1.74-1.81-1.33-2.2l0.29-.13,0.25-.4,0.17,0-0.07-.08,0.13,0v-0.15l0.56-.39,0.33-.32v-0.15h0.15l0.16-.15,0-.13,0.08,0.08,0.2-.34,0.93-.75,0.27-.41,0.13,0-0.08-.08,0.35-.18,0.08-.08,0-.13,0.29-.13-0.08-.08a0.74,0.74,0,0,1,1.18.1l0.08,0.08,0,0.13,0.51,0.41,0.79,0.93,1.11,1,0.32,0.33,0,0.13,0.59,0.34-0.14.13,0.59,0.34v0.15l0.54,0.56,0.45,0.31,0.15,0.31,0.39,0.41h0.15l0.16,0.44,0.44,0.18,0.08,0.08v0.15l0.08,0.08h0.15l0.24,0.41,0.38,0.24,0.22,0.39,0.84,0.88h0.15l-0.08.07,0.3,0.16,0.07,0.08v0.15l0.3,0.16,0.37,0.54,0.77,0.65,0.3,0.46,0.68,0.43,0.54,0.83,0.45,0.31,0.07,0.08,0,0.17,0.07,0.08h0.15l0.52,0.7,0.38,0.24,0.08,0.08v0.15l0.08-.07,0.32,0.48,0.9,0.78,0.08,0.08,0.32,0.48,0.14-.13,0.46,0.75,0.38,0.24,0.24,0.41,1.5,1.29,0.32,0.44,0.36,0.26,0.24,0.37,0.15,0.16,0.9,0.82,0.17,0.29,0.53,0.28q-0.14.13,0.24,0.52l0.9,0.93,0,0.17,0.81,0.57,0.32,0.45,0.39,0.41,0.13,0-0.06.06,0.13,0,0.08,0.08,0,0.13L342,214l0.43,0.33,0.17,0.29,2.14,2.22V217l0.44,0.18,0.39,0.52L346,218l0.24,0.37,0.22,0.23,0.13,0-0.06.06,0.75,0.66,0.48,0.89-0.46.26-0.06.06,0,0.17-0.15,0-0.91.88-0.26.43-0.3-.16-0.14.13,0.13,0.14-1.05,1-0.36-.22-0.08-.08v-0.15l-0.08-.08h-0.15l-0.17-.33-1.67-1.58-0.75-.78-0.47-.64-0.38-.24-0.22-.23,0.08-.07,0.15,0.16,0.06-.06v-0.31c-0.14.14-.26,0.16-0.36,0.05l-0.14.13-0.07-.08,0-.13-0.24-.25-0.51-.41-0.32-.44-0.39-.41-0.13,0,0.06-.06-0.36-.25-0.08-.08,0-.13-0.43-.33-0.17-.29-0.08-.08-0.13,0-0.26-.39-0.52-.54-0.51-.41-0.34-.46-0.07-.08-0.43-.33,0.12-.27-0.08-.08-0.14.13-0.3-.31-0.45-.35-0.17-.29-0.07-.08-0.13,0,0.06-.06-0.43-.33-0.17-.29-0.06.06-0.71-1q-0.14.13-.66-0.41l-0.54-.56,0-.13-0.06.06-0.69-.84-0.45-.35,0-.13-0.51-.41-0.54-.56h-0.15v-0.15l-0.9-.93-0.47-.33-0.15-.31-0.75-.78,0-.13-0.13,0-0.26-.39-0.07-.08-0.13,0-0.17-.29-0.29,0-0.45-.62-0.17-.17h-0.15v-0.15l-1-1-0.08.08,0.24,0.37-0.08.07,0.3,0.16,0.08,0.08v0.15l0.51,0.26-0.06.06v0.15l0.47,0.33-0.14.13,0.45,0.47,0.3,0.46h0.15l0.26,0.54a29.39,29.39,0,0,1,2.89,3.89l0.17,0,0.84,1.18,0.36,0.25a28.87,28.87,0,0,0,2.7,3.62l-0.14.13h-0.15l0.17,0.18,0.29-.13,2.14,2.92,0.17,0L336,218l0.07,0.08h0.15l0.07,0.08v0.15l0.3,0.16q-0.14.13,1,1.32l0.07,0.08v0.29l0.3,0.2,0.16,0.44,0.07,0.08h0.15l0.07,0.08-0.16.15,0.38,0.24a6.85,6.85,0,0,0,1.21,1.57q0.23,0.23.09,0.36l0.3,0.2,1.47,1.92,0.13,0-0.06.06,0.13,0.14-0.27.26h-0.15V226l-0.06.06h-0.15l0,0.13-0.91.88,0,0.17c-0.11-.12-0.34,0-0.67.31l-0.12.26a0.64,0.64,0,0,1-.49-0.24l-0.08.08,0.36,0.37-0.14.13-0.13,0-2.77-2c0.14-.14.16-0.26,0.06-0.36l-0.3-.31q-0.29.28-1.95-1l0.08-.07-1-.74v-0.44l-0.15-.16H333v0.15l-0.06.06H332.8v-0.15l-0.62-.34q0.14-.13-0.22-0.54l-0.16.15-0.07-.08-0.45-.62q-0.23.22-2.62-1.9l0-.13-0.06.06q-1.6-1.5-1.73-1.37-1.37-1.42-1.64-1.16l-0.17-.29-1.75-1.39-0.07-.08v-0.15l-1.34-1-0.09-.1,0-.13-0.44-.18-0.07-.08v-0.15l-0.38-.24-0.15-.16,0.14-.13L320.8,213c-0.18.17-.5,0-1-0.46v-0.15l-0.36-.1-0.07-.08,0.14-.13-0.07-.08-0.76-.36,0.08-.07q-0.34-.27-0.51-0.11l-0.08-.08,0.14-.13L318,211l-0.08-.08V210.8l-0.9-.67,0.06-.06-0.44-.18-0.45-.62-0.14.13v0.15l-0.15-.16-0.06.06v0.29L316,210l0.13,0,0,0.13,0.07,0.08,0.36,0.1,0.84,0.88v0.15h0.15l0.53,0.54,0.09,0.36,0.14-.13,0.24,0.25v0.15h0.15l0.83,0.86v0.15l0.08-.08c0.11,0.12.07,0.27-.12,0.46l0.15,0.16v-0.15l0.29-.13,0.08,0.08,0.16,0.59c0.14-.14.27-0.15,0.37,0l0.15,0.16v0.15h0.15l0.15,0.16,0,0.17h0.15l-0.14.13,0.15,0.16,0.14-.13,0.67,0.7v0.29l0.29,0v0.15l0.68,0.43,0.24,0.37,0.69,0.72,0.43,0.33,0.17,0.29L325,219l0.13,0-0.06.06,0.3,0.2,0.17,0.29,0.07,0.08,0.13,0,0.07,0.08-0.14.13,0.6,0.47L326.9,221l-0.14.13,0.3,0.31,0.14-.13v0.15l0.85,0.72,0.07,0.08v0.15l0.08-.08,0.3,0.46,0.08,0.08,0.45,0.31,0.11,0.38,0.08,0.08,0.14-.13,2.12,2.2v0.15h0.15l0.84,0.88-0.08.08-0.13,0-0.08.07,0.23,0.23,0.21-.21,0.3,0.31v0.29l1.11,0.77,0.24,0.37,0.62,0.64,0.13,0-0.06.06,0.13,0,0.31,0.6,0.07,0.08h0.15l0.47,0.64,0.28,0.14-0.43.56-0.08.08-0.13,0-0.06-.06,0-.13-0.15-.15-0.14.13,0.22,0.5-0.91.73-0.26.59-0.09-.1-0.13,0-0.2.34-0.37.2-0.22.36-0.33.32-0.28-.14,0.08-.07a0.28,0.28,0,0,0-.44,0l-0.07-.08v-0.15L331,232.23l-0.32-.44-0.74-.49,0.08-.08,0-.13-0.28-.18-0.19-.31-0.36-.25-0.22-.23,0-.13a0.28,0.28,0,0,0,0-.44l-0.08-.08q-0.21.21,0.09,0.52l-0.14.13q-0.62-.64-0.27-1l-0.15-.15-0.14.13-0.08-.08,0-.13-0.07-.08-0.14.13,0,0.13-0.54-.68-0.68-.59-0.45-.47,0.14-.13-0.36-.1-0.24-.37-0.38-.27-0.15-.16,0-.13-0.13,0-0.52-.54-0.47-.33-0.22-.39,0.14-.13-1.81-1.45-0.22-.39-1.22-1.26,0-.13-0.13,0-1.37-1.42-0.34-.47-0.28-.18-0.08-.08-0.24-.37-0.66-.41v-0.15l-0.54-.56H317l0.08-.08,0-.13-0.08-.08-0.13,0-0.53-.54-1.4-1.57-0.44-.18-0.07-.08V215h-0.15l0.14-.13q0.22,0.23.36,0.1l-0.08-.08-0.49-.12-0.92-1,0.14-.13a2.57,2.57,0,0,1-.42-1.1l-0.06.06q-0.21.21,0.09,0.52l-0.14.13-0.83-.74-0.38-.39a3.12,3.12,0,0,1-.71-1l-0.14.13-0.3-.31,0.41-.24-0.15-.16,0,0.13-0.5.18-0.31-.75-0.15-.16-0.08.08-0.3-.2,0-.13-0.66-.41,0.27-.26L309,209a0.22,0.22,0,0,0-.34,0l-1.37-1.42,0.19-.19-0.15-.15-0.13,0-0.08.08,0,0.13-0.69-.72-0.9-.78-0.17-.33-0.3-.16-0.07-.08,0.08-.08,0.15,0.16,0.06-.06L305,205.2l-0.14.13-0.3-.46-0.15-.16h-0.15l0.08-.08-0.3-.16-0.09-.1v-0.15l-0.08-.08h-0.15a1,1,0,0,1-.27-1.09l-0.39-.41-0.27.11q0.38,0.43.18,0.62l-0.69-.87-0.38-.24,0.08-.08-0.15-.15,0.13,0v-0.29l-0.19.19-0.23-.23-0.62-.49,0.9-1.17,0.35-.18v-0.15l0.08,0.08,0.26-.55,0.29-.13c0.1-.1.26,0,0.46,0.16l0.14-.13-0.23-.23H303l0.29-.13,0.08-.08,0-.13,0.42-.26,0-.13,0.07,0.08,0.08-.07V198l0.76-.73v-0.15Z" transform="translate(-261.08 -108.24)"/><path class="a" d="M331.83,174.55l0.15,0,0.08-.08v-0.13l0.25-.16,0.06,0.09,0.47-.42,3.31-2,0.09,0.1L336.3,172a68.82,68.82,0,0,0,4.3,6.07l0.57,0.7,1,1.55,0.06,0.09,0,0.15,0.06,0.09,0.28,0.08,0.29,0.46v0.12l0.23,0.21,1.28,1.71-0.06.46,0.17,0.27,0.07,0-0.23-.36,0.08-.08q0.23-.15,2.07,2.4l0.26,0.22-0.07,0q2.32,3.1,3.15,4.37l0,0.15,0.17,0,0.16,0.25,1.29,1.58,0,0.15,0.06,0.09,3.3,3.89,0.16,0.41,2,2.53v0.13l0.13,0,0.09-.06,0.45,0.86,6.22,8.18a0.63,0.63,0,0,1,0,.78l-0.4.13v0.13l-0.09.06-0.39.15-0.28.31-0.35.1-0.05.07-1.3.63-0.07,0-0.38.11h0.19l-0.24.18-2.8-3.86-0.83-.91-1.27.77-0.81.54-0.43.08-0.25.35a1.15,1.15,0,0,1,.33.88l0.15,0,2.47,4.19v0.14L355,214.93l0,0.19-0.4.13-1,.81-0.33-.17q-3.08-5.05-2.74-5.27l-0.15,0-0.11-.18q-4.23-8.32-4.34-8.86l-0.38-.4,0-.15,0.07,0-0.38-.4a8.54,8.54,0,0,1-1.49-2.86l-0.15,0a1.83,1.83,0,0,1-.4-1.19l-0.27-.18q-0.29-.46-0.15-0.58l-0.13,0q-0.75-1.28-.59-1.38l-0.15,0-0.06-.09q-1.08-2-.94-2.34l-0.28-.08q-0.84-2.12-.61-2.27l-0.61-.25-0.46-.73,0-.31h-0.14l-0.08-.08-1.17-2.71-0.15,0-0.06-.09q-5.65-10.21-5.58-10.51l0-.15Zm1.5-.06,0.2,0.26,0.16-.1-0.08-.08Zm0.72-.33,0.2,0.26,0-.28-0.06-.09Zm4.7,8.66,0.18,0.43,0.11,0,0.09-.06-0.29-.46Zm4,2.57,0.25,0.35,0.09-.06-0.25-.35Zm0.11-1,0.06,0.09,0-.28-0.08-.08Zm0.76,4.38q1.08,1.75.9,1.86h0.13l0,0.07q3.57,6,3.34,6.17l0.25,0.1v0.23l0.49,0.78,0,0.56,0.13,0,0.06,0.09L349,199l0.11,0,0.09-.06,2.41,4.55,0.11,0,0,0.13h0.13l1.77-1.09-0.1-.06,0.07,0-1.9-2.54,0,0-0.1-.06-0.25-.39v-0.1l-0.06-.09a1.2,1.2,0,0,1-.7-0.65l-0.13-.46L348.27,195l0.05-.07-0.13,0,0-.07,0-.11-2.08-2.52,0.05-.07-0.21-.19-1.26-1.73,0.07,0-0.11,0-0.84-1.23Zm0.6,5.13,0.36,0.67,0.16-.1-0.43-.62Zm0.12,2,0.08,0.08,0.39-.15-0.14-.17Zm0.44-3.54,0.08,0.33,0.08,0.08,0.07,0-0.1-.32-0.06-.09Zm2.19,4.11,0.12,0.18,0.09-.06L347,196l-0.06-.09Zm1.65-3.7,0.06,0.09,0.07-.3-0.06-.09Zm0.34-.63,0.14,0.42c0.11-.07.1-0.19,0-0.37L349,192.1Zm4.57,17.58,0.23,0.36,0.08-.08-0.16-.41Z" transform="translate(-261.08 -108.24)"/><path class="a" d="M353.93,162.41l0.17-.07,1.28-.43,0.06-.14q3.8-1.76,4-1.24l0,0.13,0,0.1q0.18-.07,2.19,3.92l0.9,1.15,0,0.1-0.06.14,2,4,0.08,0.2,0,0.13,3.11,4.54,0.08,0.2,0,0.13,0,0.1a11.17,11.17,0,0,1,1.72,2.75l0.14,0.06,0,0.1-0.06.14,0.14,0.06,0.15,0.29-0.06.14,0,0.1q0.2-.08,1.14,1.52l-0.1,0a7.46,7.46,0,0,1,1.25,1.88l0.09-.06L371.73,181l0-.36-0.08-.2-0.2-.27-0.13-.53-0.59-1.39-0.24-.37-0.09-.43,0.38,1-0.26-.36,0-.33-0.2-.27,0.08,0-0.12-.07-0.13-.53-0.4-1,0.06-.14-0.14-.06-0.08-.2-0.13-.53-0.2-.27-1.75-5-0.14-.06-0.1-.54-0.83-2-0.92-2.43-0.24-.37,0.07,0-0.2-.27,0-.33-0.24-.37-0.27-.82-0.12-.07-0.78-2.37,0.1,0-0.14-.06-0.08-.2q-0.36-.9.26-1.15l1.5-.61,1.23-.41,0.52-.44a0.56,0.56,0,0,1,.56.09l0.12,0.3-0.06.14,0.14,0.06,0.28,0.7-0.06.14,0.14,0.06,0.23,0.49,0.1,0.54,0.34,0.56,0.14,0.64,0.14,0.06,0,0.1-0.06.14,0,0.1,0.14,0.06,0,0.1,0,0.13,0,0.1,0.34,0.33,0.19,1,0.28,0.47,0.23,0.72,0.2,0.27-0.09.27,0,0.1,0.06-.14,0.08,0,0.13,0.53,0.45,1.1a2.57,2.57,0,0,1,.28,1.2l0.27,0.09,0,0.1,0.17,1,0.13,0a1.55,1.55,0,0,1,.18.89l0.12,0.07,0.12,0.3,0.09,0.43,0.57,0.91,0.18,0.89,0.11,0.07,0,0.1,0,0.13,0,0.1,0.24,0.37,0,0.13,0.37,0.41,0.06,0.36,0.13,0,0,0.1,0.12,0.8,0.24,0.37,0.25,0.83,0.2,0.27a1.45,1.45,0,0,1,.17.86l0.28,0.47,0.28,0.7,0.5,1.66,0.22,0.26,0.63,2.07,0.46,0.86,0.06,0.44,0.14,0.06,0.33,1,0.56,1.4,0.33,0.45,0.14,0.64,1,2.3-0.09.27,0.14,0.06,0.08,0.2-0.06.14,0.14,0.06,0.3,1,0.06,0.09,0.32,0.57,0.09,0.43,0.08,0.2,0.08,0,0.21,0.73,0.31,0.69,1.1,2.94,0.14,0.06,0.1,0.54,1,2.3a0.66,0.66,0,0,1-.48.89l-4,1.76-0.43.17q-0.35.14-4.54-7.23l0.06-.14,0-.1a41.87,41.87,0,0,1-3.23-5.48l-1.11-1.59-0.11,0-0.08-.2,0-.16,0-.1-0.24-.1,0.06-.14,0-.1q-4.76-8.07-5.2-9.09l0.06-.14-0.14-.06-0.07,0,0.43,1,0.23,0.87-0.09-.52,0.4,1,0,0.13,0.12,0.07q0.51,1.77,3,7.74l-0.06.14,0.14,0.06,0.18,0.74,0.45,1,1.29,3.27-0.06.14,0.14,0.06-0.1,0,0.14,0.06,0.1,0.54,0.63,1.49-0.06.14,0.14,0.06,0.57,1.4-0.06.14,0.14,0.06,1.24,3.23,0.44,1.1L374,202.3l0.29,0.35q0.64,1.58.29,1.72l-0.22-.26-0.1,0q0.12,0.3-.05.37l-2.79,1.18-0.59.35a3.4,3.4,0,0,1-.91-1.47l-0.09-.43-0.14-.06,0-.1-0.18-.74-0.14-.06-0.1-.54-0.75-1.79,0-.13-0.12-.07-0.13-.53-0.28-.7,0-.13-0.14-.06-0.36-.9,0.06-.14-0.14-.06-0.1-.54-1.24-3-0.38-1.16-0.13,0-0.31-1.07-0.59-1.39-0.21-.24-0.11-.57-1.12-2.7,0.09-.27-0.12-.07-0.35-1-0.28-.7-0.24-.37-0.41-1.46-0.38-.66-1-2.5,0.06-.14-0.14-.06-0.33-1-0.28-.7a28.54,28.54,0,0,1-1.5-4.17l-0.08-.2-0.1,0-1-2.74-2.43-5.89,0-.13-0.11-.07,0-.1-0.09-.43-0.11-.07,0-.1-0.25-1.06-0.12-.07,0-.1Q353.68,162.51,353.93,162.41Z" transform="translate(-261.08 -108.24)"/><path class="a" d="M389.92,150.44l0.69-.14q0.92-.21,1,0.08l0.1-.19,0.13,0,0.74,0.13,0.58,0.16,0.26-.05,0.24,0.39,0.26-.05,0.42,0.05,0.77,0.43,0.19,0.1,0.06,0.29q0.72,0.16,2.16,2.72l0,0.45q0.34-.07.78,1l0.11,0.58,0,0.6,1.46,7.17-3.91.85-0.29.08-0.32-.24-0.06-.29,0.27-.05,0.06,0.29,0.21-.34-0.22-.42-0.13.19-0.11,0-0.18-.1,0-.16-1.33-6.49,0.26-.08L394,157l-0.16,0,0.06,0.29-0.11,0a2.92,2.92,0,0,0-1.42-1.9v-0.3l-0.34.23-0.34-.21-0.69.27q0.19,0.29-.1.21l0.22,0.4-0.29.61q-0.51.62-.32,2.87l0.22,0.29,0.06,0.29-0.11.16,0.16,0.13,0,0.13,0.1,1.08L391.2,162l0.57,2.61,0.16,0.11-0.21.21,0.17,0.71,0.22,1-0.07.92,0.25,0.56-0.1.19,0.16,0.11,0.16,0,2,10.82,0.33,0.84q0.11,0.45-.44.56l0,0.16q0.55-.14.72,0.74l0,0.74,0.16,0.13,0,0.13-0.08.18,1.05,5.22,0.08,0.42,0,0.61q0.88,2.8,2.25,2.89l-0.23-.18,0,0.13q0.54-.33.58-0.14,1.33-.65.77-3.23,0.23-.07-0.83-5.48l-0.25-.56,0.11,0-0.16-.11,0-.16-0.07-.9-0.16-.11,0-.16,0-.74,0.13,0,0.32,0.21-0.4-.64,3.67-.66,0.52-.13,0.35,0.23,1.48,7.25q0.17,0.71-.09.79l0.13,0.11,0,0.13q0.27,4.35-.23,4.45l-0.19-.1-0.13,0L404,192l0.22,0.4a9.43,9.43,0,0,1-2,3.17A8,8,0,0,1,400,196.7a8.71,8.71,0,0,0-1.51,0,2.79,2.79,0,0,1-2.32-.62q-0.54.08-2.66-2.18l-0.86-1.45,0.13-.05-0.56-.61,0.1-.19-0.16-.11-0.2-.87,0-.76c-0.17.05-.29-0.07-0.35-0.37l-2-10.31,0.28-.66-0.06-.29-0.13.19-0.13,0-0.16-.13-1-5.06-0.23-1a4.32,4.32,0,0,1,0-2.43l-0.39.1-1.31-6.54q-1.21-5.74-.64-7.06l0,0,0.21-.59,0-.16q0.17-.67.42-1.76l0,0.07a1.59,1.59,0,0,1,.66-0.85,8.33,8.33,0,0,1,1.33-1.5q-0.08-.42.91-0.81l0.18,0.1q-0.75.53,0.11,0Zm6.6,3,0.09,0.45,0.26-.35-0.19-.13Zm2.32,3.12,0.09,0.45,0.32-.06,0-.16Z" transform="translate(-261.08 -108.24)"/><path class="a" d="M422.3,167.82l0.08-.65-0.11-.11,0.1-.54v-1.19l0.08-.11-0.11-.11,0.16-3.43-0.11-.54,0.08-.43-0.11-.32,0.1-1,0-1-0.22-.65,0.08-.11h0.11l-0.11-.11,0.17-1.6-0.11-.11h-0.11l0.1-1.08v-0.22l-0.14-.65,0.21-.33-0.11-.32,0.08-.43-0.23-.89c0.14,0,.21-0.11.19-0.33l-0.11-.32,0.11-.11h0.11l-0.11-.11v-0.43l0.11-.11-0.11-.11v-0.11a2.47,2.47,0,0,1,.2-1.41l-0.14-.11v-0.22l0.43-.44a0.28,0.28,0,0,1,.27.32h0.11q0-.3.51-0.44l0.68,0.18,0.92-.14,0.62,0.1,0.11-.11V148l1.19,0.18,0.24-.22q-0.07,4.19-.06,5.11l0.19,0.32-0.11.11v0.86h0.11l-0.1.76,0,1.4,0.11,0.43-0.2,1.49,0.14,0.11,0,0.43-0.11.11v0.11l0.11,0.11h0.11l-0.34,1.19v0.11l0.17,0.75H427.4l0.14,0.11-0.21,1.08,0.28,0.94-0.24.22v0.54l0.11,0.65,0,0-0.06-.46,0,0.49-0.05.05,0,0.32h0v0.11l0.14,0.75h0.22l-0.44,4.41-0.1.43,0.11,0.11,0.06,0.32-0.11.33V172h0.11V177l0.12,3.65-0.11.11,0.11,0.11,0,1.81-0.21.22,0.11,0.11v0.22l-0.1,1.19,0.11,0.11-0.1.54,0.1,2.48-0.1.62,0.11,0.11-0.1.54,0.07,1.51,0.28,4-1.92.15V194.4l-0.11.11-0.68-.1-1.13.15-0.11-.11H423.7l-0.46.11h-0.46l-0.22-.19-0.12-4.21,0-1.73-0.11-.32,0.2-4.41-0.11-.11,0.1-.54-0.17-6.43,0.08-.43-0.14-.43,0.21-.33-0.22.06v-0.05l0.21-.33,0,0.22,0.11-.11-0.11-.11-0.07-1.59,0.05-.22-2-.06-0.46.11H420l-0.11-.11-0.11.11-1.22.07-0.1.43,0.11,0.11,0.06,0.32-0.13.33,0,0.22h0.13l-0.06,1.81,0.12,3.65-0.13.11,0.14,0.11,0.07,1.81-0.24.22,0.11,0.11v0.22l-0.1,1.19,0.11,0.11-0.1.54,0.11,2.48-0.1.62,0.11,0.11-0.1.54L418.6,190v4.24l-1.62.18v-0.11l-0.13.11-0.65-.1-1.4.15-0.14-.11h-0.11l-0.46.11h-0.43l-0.25-.21-0.12-4.46,0.06-1.73-0.11-.32,0.2-4.41-0.11-.11,0.1-.54-0.17-6.43,0-.43-0.11-.43,0.24-.33-0.25-.21v-0.32l0.24-.33-0.05-2.48,0.08-.11-0.14-.11,0-1.59,0.13-.43-0.13-.11,0.1-.87-0.14-.75,0.13-.11v-0.11l-0.14-.43,0-1.05-0.12-.76,0.07-.65-0.11-.11,0.1-.54v-1.19l0.11-.11-0.14-.11,0.2-1.27-0.11-.54,0.08-.43L413.2,160l0.13-1,0-1-0.28-.65,0.11-.11h0.13l-0.14-.11,0.2-1.6-0.11-.11h-0.14l0.12-1.08v-0.22l-0.17-.65,0.21-.33-0.14-.32,0.13-.43-0.25-.62c0.16,0,.23-0.11.21-0.33l-0.14-.32,0.13-.11h0.11l-0.11-.11v-0.43l0.11-.11-0.11-.11v-0.11a2.92,2.92,0,0,1,.18-1.41l-0.11-.11,0-.22,0.46-.44c0.14,0,.22.08,0.22,0.3H414a0.55,0.55,0,0,1,.54-0.44l0.68,0.18,1.21-.12,0.32,0.1,0.11-.11v-0.11l1.19,0.18,0.21-.22q0.26,4.19.26,4.83l0.14,0.32-0.11.11,0,0.86h0.11l-0.1.76,0,1.4,0.11,0.43L418.59,158l0.11,0.11,0,0.43-0.11.11v0.11l0.11,0.11h0.11l-0.31,1.19v0.11l0.14,0.76h-0.11l0.11,0.11-0.18,3.24,0.28,0.94-0.21.22V166l0.11,0.65,0,0-0.06-.46,0,0.49-0.05.05,0,0.32h0v0.11l0.12,0.75H419v-0.11l1.11,0.15,0.11-.11Zm-9-2.77-0.08.41h0.11v-0.38Zm5.29,2h0.08l-0.06-.4,0,0v0.38Zm5.81-2.89-0.05.41h0.08v-0.38Zm0,0,0,0,0.08-.33Zm3,1.13h0.11l-0.08-.4,0,0v0.38Z" transform="translate(-261.08 -108.24)"/><path class="a" d="M446.24,149.34l0.61,0.29,0.87,0,0.3,0.16,0.13-.12,0-.11L449,150l0.25-.18,0.71,0.31,1.73,0.16,0.42,0.07,0.63,0.19,0.12-.09q2.28,0.47,2.21.87l0,0.21-0.24.29,0.18,0.25-0.62,4a0.87,0.87,0,0,1-.9.29l-0.12-.13-0.53,0-0.53-.09-0.87-.23,0,0.1h-0.22l-0.12-.13-0.11,0c0,0.22-.17.3-0.45,0.25l0.72-.07-1.28-.19a0.57,0.57,0,0,0-.75.53l-0.08,1.14-0.12.09,0,0.32,0.11,0-0.23.73,0,0.06,0.06,0.45-0.37.92,0.09,0.12,0,0.43-0.12.09,0,0.11,0.09,0.13,0.1,0-0.18-1,0,0.11v0.77l-0.11,0,0.09,0.13L448,162l0.05,1-0.22.18-0.09.53v0.66l-0.12.09,0.24-1.27,0.11,0-0.3,1.26-0.12.69v0.77l0.21,0,0-.11,1.25,0.4,0.13-.09,3.22,0.71,0.35,0.5-0.19.63,0.09,0.13-0.26,1.05-0.26,1.54,0.15-1.51-0.14,1.46-0.17.52-0.14.85a0.54,0.54,0,0,1-.67.22l-1.18-.17-0.43-.18-0.69,0-0.32,0-0.12-.13-0.1.09-1.92-.3-0.18.41,0.09,0.12-0.05.32-0.16.3v0.22l0.11,0-0.57,2.86-0.94,6.31-0.12.09,0.09,0.13-0.28,1.82-0.25.18,0.09,0.12,0,0.21-0.19.63,0.09,0.13,0-.82-0.45,3-0.19.63,0.09,0.13-0.2.51-0.23,1.5,0.76,0,0.86,0.12,0.51,0.2,0.34-.05,0.42,0.13,0.32,0,0.44,0q1.27,0.3,1.23.51l-0.43,2.83v0.55l-0.12.09-0.21,1.39-0.22.18,0.09,0.12,0,0.11c0,0.14-.14.19-0.36,0.16l-2-.39-0.34.05,0-.11-0.12.09-0.52-.17-2.46-.36-1.3-.08,0-.11-0.12.09-0.62-.21-1.09,0-0.09-.12-0.11,0-0.44,0-0.43,0L437,195l0.68-4.49,0.34-1.7-0.05-.34,1-4.33-0.09-.12,0.17-.52,1.29-8.55,0.18-.41-0.06-.45,0.27-.28-0.18-.25,0.05-.32,0.24-.29,0.39-2.45,0.12-.09-0.12-.13,0.25-1.6,0.18-.41-0.09-.12,0.22-.84,0-.76,0.12-.09,0-.11-0.06-.45,0.26-1.05,0-.76,0.19-.63-0.09-.12,0.2-.51,0.17-1.18,0.12-.09-0.09-.12,0.4-1.25,0-.55,0.15-.41-0.05-.34-0.07,1.2,0.14-1-0.1-.68,0.13-.09,0.11,0-0.09-.13,0.43-1.57-0.09-.12-0.11,0,0.26-1.05,0-.21v-0.66l0.27-.28L444,154l0.18-.41-0.11-.68c0.14,0,.22-0.07.24-0.29l-0.05-.34,0.13-.09,0.11,0-0.09-.12,0.07-.43,0.12-.09-0.11-.13,0-.11a2.87,2.87,0,0,1,.42-1.35l-0.09-.12,0-.21,0.5-.35c0.15,0,.2.12,0.16,0.33l0.11,0A0.55,0.55,0,0,1,446.24,149.34Z" transform="translate(-261.08 -108.24)"/><path class="a" d="M475.85,156.94l0,0.13,0.39,0q4.06,1.4,3.59,7.41a19.56,19.56,0,0,1-.73,3.52l-1.23,3.58q-0.49,1.43-1,1.25l-0.15-.05-0.58-.31-0.62-.1-0.32-.23h-0.29l0-.1-0.62-.1-0.4-.25h-0.37l-0.22-.19h-0.29l0-.1-0.07-.37,0.11-.08,0.25-.72,0.42-1.46,0.11-.08,0-.1,0-.13,0.22-.38,1-3.14-0.29-.33,0.14-.07,0-.1a2.62,2.62,0,0,0-.13-1.87q-1.66-.23-2,0.89-0.26-.09-1.26,2.25v0.34l-0.28.48-0.17,1.08-0.11.08a23,23,0,0,0-.53,4.62,66.86,66.86,0,0,0,1.27,7.18l0.16,1.77,0.18,3a5.56,5.56,0,0,1-.12,2l0.18,0.06-0.11.08a20.7,20.7,0,0,1-.64,3.78l0.11,0.27,0,0.1-0.18-.06-0.45,1.9-0.39.55,0.07,0.14,0,0.1-0.14.07,0.07,0.14-0.07.2a6.15,6.15,0,0,1-.85,1.65l0,0.13,0,0.1-0.68,1.14-0.11.31-0.18-.06-0.11.31-1.07,1.46a8.94,8.94,0,0,1-4.68,2.73l-0.18-.06,0-.13-0.72.1,0-.13-0.9-.2-0.59-.2A6.29,6.29,0,0,1,458,199l-0.92-1.57a9.9,9.9,0,0,1-.4-3l-0.08,0,0-.1,0.11-.08,0-.1c-0.17-.06-0.13-0.46.13-1.21l-0.18-.06,0.28-.82a0.82,0.82,0,0,0,0-.91l0.11-.08,0.84-2.45,0.06-.44,0.22-.38,0.07-.2,0-.33,0.25-.48,0.46-1.33,0.36-.22,0.28,0.1,0.3,0.22,0.58,0,0,0.13,0,0.1,0.73,0.14,0.58,0.31h0.29l0,0.13a2.43,2.43,0,0,0,1.27.21q0.46,0.16.27,1.12l-0.37.56,0,0.13,0,0.1-0.11.08-0.1.54-0.22.38,0,0.33-0.11.08,0,0.1-0.06.44-0.25.48q-1.08,4.14-.37,4.39l-0.11.31,0.14-.07,0.08,0v0.23l0.14-.07,0-.1,0.22,0.19a1.15,1.15,0,0,0,1.37-.67,7.56,7.56,0,0,0,1.54-2.5l0-.44,0.28-.48v-0.34l0.18,0.06,0.11-.31a0.22,0.22,0,0,0-.19-0.29l0.07-.2,0,0.13,0.1,0a4.14,4.14,0,0,0,.24-1.52l0.29-.59q-0.21-.07,0-0.91l-0.08,0-0.07.2-0.1,0q0.47-2.12,0-2.28a1,1,0,0,0,0-.8c0.07-.2.06-0.32,0-0.36l0.11-.08,0.07-.2-0.08,0-0.07.2-0.1,0q0.53-.7,0-2.64l-0.07-.14,0.07-.2c-0.22-.08-0.26-0.32-0.12-0.73a3.35,3.35,0,0,1-.33-1.6q-0.31-1.42-.54-2.59c-0.14,0-.16-0.25-0.08-0.6a4.65,4.65,0,0,1-.17-2,3.61,3.61,0,0,0-.12-1.3l0.18-.51c-0.15-.05-0.16-0.43,0-1.15l0-.13,0.08,0a13.43,13.43,0,0,1,.78-4.19l-0.07-.37,0.18,0.06,0.07-.55,1-2.29,0.1-.54q0.33,0.11.83-1.32a11.65,11.65,0,0,1,3-3.52l0.11-.08a5,5,0,0,1,2.38-1Z" transform="translate(-261.08 -108.24)"/><path class="a" d="M497.87,166.63l0.07,0.28,0.14,0,0.1,0.05,0.21,0.23,0.61,0.17,0.07,0,0.32,0.26,0.15,0,0.09,0.05,0.26,0.38,0.14,0,0.9,0.45,1.6,0.91,0.59,0.16q0.57,0.43.47,0.62l-0.64,1.25-0.31.87-0.37.53-0.11.43-0.42.39,0,0.15-0.1.19-0.73.1-1.32-.86-0.41-.09,0.05-.1-0.15,0-0.19-.1,0-.13c-0.35-.07-0.55,0-0.59.08l-0.15.29,0,0.47-0.4.4,0.07,0.28-0.05.1,0-.15-0.07,0-0.25.48,0,0.19-0.4.64-1.25,2.4-0.32.2-1,1.93-0.11.43-0.37.29-0.16.53-1.45,2.9-0.12.06,0,0.13-0.05.1-0.22.25,0,0.13-0.3.45-0.05.1-0.08.32-0.33.44-1.12,2.22-0.32.2-0.06.34-0.63,1-0.08.2-0.11.43-0.3.33-0.48,1-0.15,0,0,0.15-0.18.39-0.15,0,0,0.15-0.91,1.6-0.64,1.25a40.23,40.23,0,0,1-2.18,3.86l0,0.15-0.32.44-0.94,1.83-0.63,1,0,0.35-0.15,0,0,0.1,0,0.15-0.33.44-0.06.34-0.35.43-0.43.87-0.38.53,0,0.15-0.58.92-0.69,1.35-0.45.28-0.87-.55-2.11-1.09-0.33-.3-0.38-.08-0.11,0-0.13-.44,0.53-1.06,1.37-2.45,0-.15,0.32-.44,0.59-1.16,0.15,0,0-.15,0.13-.3,0.5-.47-0.09-.29,0.27-.34,0.06-.34,0.29-.09,0.48-1,0.13-.54,0.4-.52,1.2-2.42,0.14,0,0-.15,0.1-.19,0.3-.33,0.08-.44,0.1-.19,0.15,0,0-.15,1.69-2.89,0.29-.83,0.09,0.05,0-.15,0.1-.19,0.64-.79,4.7-9.13,1.29-2.13,0.16-.53,0.1,0.05,0-.15,0.43-.63,0.54-1.06,0.53-.82,0-.15,0.3-.33,0.21-.68,0.38-.53,0.16-.53,0.22-.25,0-.15,0.05-.1,0.3-.33,0.05-.1a0.5,0.5,0,0,0-.34-0.52l-0.15,0-0.07,0-0.31-.29-0.42-.07,0-.39-0.28.13-0.09-.05-0.68-.45-0.77-.29,0.06-.34,1.9-3.58a0.76,0.76,0,0,1,.71-0.24l0.63,0.55,0.27-.1-0.05.1,0.15,0,0.42,0.31,0.62,0.33,0.42,0.07,0.31,0.29,0.31,0,0.06,0.12Zm-21.94,36.68-0.05.1,0.28,0.39,0.15,0,0.05-.1,0-.15Zm0.68-.13,0.09,0.29,0.2-.38Zm0.19,1.94-0.15.29,0.29,0.15,0.1-.19Zm0.08-1.06-0.2.38,0.29,0.15,0.11-.43Zm0.72,0.26-0.05.1,0.24,0.25,0.15,0,0.05-.1Zm0.3-.57-0.15,0-0.15.29,0.1,0.05,0.3-.33Zm2.57-8.06-0.15.29,0.19,0.1,0.05-.1Zm0.22-.87-0.15,0-0.1.19,0.29,0.15,0.05-.09Zm0.55,1-0.1.19,0-.15-0.09-.05-0.05.1,0.13,0.44,0.29-.09,0.06-.34Zm0.9,0.85-0.15,0-0.05.1,0.23,0.25,0.05-.1Zm0.26-.72-0.1.19,1,0.51,0.15-.29Z" transform="translate(-261.08 -108.24)"/><path class="a" d="M517.32,178.1l0.41,0.54,0.76,0.43,0.2,0.28,0.17,0,0.06-.09,0.56,0.69,0.3,0,0.49,0.6,1.47,0.93,0.35,0.26,0.47,0.45,0.15,0q1.81,1.45,1.57,1.78l-0.13.17-0.35.15,0,0.3-2.35,3.24a0.88,0.88,0,0,1-.93-0.15l0-.17-0.49-.2-0.43-.32-0.67-.6-0.09.07-0.19-.11,0-.17-0.09-.06q-0.17.28-.52,0l0.68,0.27-1.06-.75a0.57,0.57,0,0,0-.91.13l-0.59,1-0.15,0-0.17.28,0.09,0.06-0.54.54v0.06l-0.15.43-0.75.65,0,0.15-0.24.36-0.15,0-0.06.09,0,0.15,0.09,0.06,0.3-1-0.06.09-0.34.69-0.09-.06,0,0.15-0.8.75-0.41.91-0.28.06-0.32.43-0.3.58-0.15,0,0.8-1,0.09,0.06-0.84,1-0.42.56-0.34.69,0.17,0.13,0.06-.09,0.93,0.93,0.15,0,2.55,2.1,0.09,0.6-0.45.47,0,0.15-0.71.82-0.94,1.26,0.82-1.28-0.78,1.23-0.39.38-0.52.69a0.54,0.54,0,0,1-.69-0.11l-1-.69-0.3-.36-0.64-.27-0.28-.17,0-.17-0.13,0-1.58-1.14-0.34.28,0,0.15-0.19.26-0.28.2-0.11.19,0.09,0.06-1.81,2.29L501,206.57l-0.15,0,0,0.15-1.08,1.49-0.3,0,0,0.15-0.13.17-0.45.47,0,0.15,0.4-.71L497.58,211l-0.45.47,0,0.15-0.41.37-0.88,1.23,0.67,0.37,0.71,0.5,0.37,0.41,0.32,0.11,0.31,0.3,0.28,0.17,0.41,0.17q1,0.84.86,1l-1.67,2.33-0.24.5-0.15,0-0.82,1.14-0.28.06,0,0.15-0.06.09c-0.09.12-.22,0.11-0.39,0l-1.57-1.24-0.32-.11,0.06-.09-0.15,0-0.39-.39-2-1.44-1.12-.67,0.07-.09-0.15,0-0.46-.47-0.95-.54,0-.15-0.09-.06-0.41-.17-0.36-.24,0-.3,2.65-3.69,1.08-1.35,0.11-.32L495,205.8l0-.15,0.39-.38,5-7,0.34-.28,0.15-.43,0.37-.13,0-.3,0.19-.26,0.35-.15,1.47-2,0.15,0,0-.17,0.95-1.32,0.34-.28,0-.15,0.58-.64,0.37-.67,0.15,0,0.07-.09,0.15-.43,0.71-.82,0.37-.67,0.45-.47,0-.15,0.41-.37,0.69-1,0.15,0,0-.15,0.93-.93,0.24-.5,0.32-.3,0.11-.32-0.6,1,0.56-.8,0.21-.65,0.15,0,0.09,0.06,0-.15,1.1-1.2,0-.15-0.09-.07,0.71-.82,0.13-.17,0.3-.59,0.37-.13,0.09-.34,0.35-.28,0.21-.65c0.12,0.09.23,0,.35-0.15l0.11-.32,0.15,0,0.09,0.06,0-.15,0.26-.35,0.15,0,0-.17,0.06-.09a2.94,2.94,0,0,1,1-1l0-.15,0.13-.17,0.61-.09c0.13,0.07.12,0.19,0,.37l0.09,0.06A0.55,0.55,0,0,1,517.32,178.1Z" transform="translate(-261.08 -108.24)"/><path class="a" d="M501.38,224.26l0.08,0-0.06.06ZM525.66,220a3.13,3.13,0,0,0-.1.36,5.14,5.14,0,0,1-1.88,3.38l-0.09-.1,0,0.17-10.76,10.63,0.07,0.08-0.13,0-0.08.07-0.32.45L512.3,235v0.15l-0.08.07-0.41.24,0.08,0.08-0.57-.09-0.54-.76-0.5-.53-0.42-.28q-1.63-1.7-1-1.91,1.68-1.57,10.88-10.55a2.86,2.86,0,0,0,1.12-2.61h0l-0.24-.41-0.92-1-0.13,0-0.23.22,0.06,0.06-0.16.15L519,218l-0.36.53-0.08,0-0.7.71-0.23,0-0.16.15v0.19h-0.15l-0.08.08-0.28.45-0.17-.06-0.12.11,0.06,0v0.15l-0.39.37L516,221l-0.24.38-0.23.22c-0.06.09-.15,0.09-0.27,0l-0.2.19,0,0.11a0.15,0.15,0,0,0-.11,0l-0.19.19,0,0.17a2.87,2.87,0,0,1-.93.71l-0.29.28v0.08l-0.16.15-0.1,0-0.12.11v0.11h-0.08l-0.29.43-0.33.13,0,0.17-0.08.07-0.25.13-0.16.19,0,0.06-0.08.07,0,0-0.08.07,0,0-0.08,0-0.43.45h-0.15v0.15l-0.23.22a0.18,0.18,0,0,1-.17.05l-0.12,0v0.19l-0.08.07-0.39.18a0,0,0,0,0,0,0v0.15l-0.12.07-0.31.41-0.37.17-0.45.54-0.25.09V228l-0.06.06v0l-0.08.07-0.08,0-0.1.09-0.76.46V229l-0.14.13-0.54.33,0,0a1,1,0,0,1-.19.15v0.25h-0.59l-0.08-.08a0.2,0.2,0,0,1,0-.25l0,0-0.34-.31a0.18,0.18,0,0,1-.13-0.06l-0.37-.39-0.28-.25,0,0-0.06-.06h0l-0.11-.12,0-.08-0.19-.19,0,0-1-1,0-.17-0.09-.1h-0.15l0-.34,0.08-.07h0.12l0.31-.38,0.06-.09,0.16-.15,0.51-.6,0.31-.3,0.13,0,0.08-.07-0.06-.06,0.15,0,0.49-.58,1.4-1.23,0.18-.28,0.54-.41,0.31-.3,0.35-.45,0.06,0.06,0-.13,0.6-.47,5.24-5,0.29-.2,0.2-.19,0.12-.07,0.28-.38,1.17-1.12,0-.13,0.15,0,2.07-2,0.13,0V211.6l0.18-.17,0.39-.22,0.16-.3,0.1,0,0.12-.19,0.55-.52,0,0,0.35-.22-0.08-.08h0.15l0.08-.07v-0.15l0.31-.15,0.16-.3,0.54-.37,0.08-.07,0-.17h0.15l1.81-1.74,0.72-.85,1.21-1,0,0,0.9-.78,3.49-3.35,0.47-.37v0l0.08-.07,0-.06,0.08-.07h0.12l0.08-.07,0.28-.38,0.13,0,0.08-.07-0.06-.06,0.13,0,0.1-.13a0.33,0.33,0,0,1,.1-0.17l1.05-1.09h0.08l0.08-.07v-0.08l0.29-.2,0.16-.15,0.06,0,0.08,0,0-.1,0.08-.07,0.27-.22,0.27-.26,0-.06,0.21-.17,0.06-.06,0.53-.47-0.15-.16,0.16-.15L535,196v0.15l0,0,0.27-.26a0.45,0.45,0,0,1,.18-0.36l0.09,0.1,0.58-.56,0-.13a0.28,0.28,0,0,1,.12-0.07v-0.31l0.14-.17h0.31l0.57,0.95,0.23,0.23h0l0,0,3.43,3.45v0.11l0.13,0.1a0.29,0.29,0,0,0-.12.07l-0.08.07,0,0-0.06.06,0.26,0.16,0,0v-0.15l0.08-.07,0.1,0,0,0a0,0,0,0,0,0,0l0.17,0.14h0.08l0.11,0.08,0.5,1,0.13,0a4.62,4.62,0,0,1,.33,2.41,8.17,8.17,0,0,1-1.51,3.81,21,21,0,0,1-2.21,2.61h-0.15l-0.1.09-0.42.66-0.13,0-1,.94-0.37.2-0.24.38-0.33.32-0.47.3-0.49.62-1.26,1.06-0.65.77-1,.76-0.16.3Q528.63,219.33,525.66,220Zm-10.45,2,0.05,0.1C515.27,222,515.26,222,515.21,222Zm5.2-4.1-0.06-.06,0,0,0.09,0.1Zm9.61-6.3,2.44-2.3,0.25-.24h0.15l0.16-.34a1.91,1.91,0,0,1,1-.48v-0.33l2.15-2.13c0.1-.1.23-0.07,0.38,0.08l0.18-.17h-0.15l-0.08-.08a4.22,4.22,0,0,0,1.52-2.4,2.32,2.32,0,0,0-1.2-2l-0.15-.16,0,0,0,0L532.94,205l-0.08-.08-0.27.15,0.29,0,0,0.17-0.08.07-0.41.24-0.18.32-0.69.25,0,0.32-0.6.2a15.44,15.44,0,0,1-2.88,2.81l-0.27.26,0.17,0v0.15l-0.1.09a0.24,0.24,0,0,1-.3,0l-0.16.15,0,0-0.06,0-0.12.07-0.16.57-0.23.22a3.8,3.8,0,0,1-1.26.95l0,0.17,0.08,0.08-0.17,0-0.58.56-0.22.4-0.41.24-0.51.49-0.34.51,0.47,0.45V215l0.13,0,0.09,0.17q0.56,0.59,2.39-.2l0.35-.34a1.52,1.52,0,0,1,1-.67v-0.15l0.55-.52,0.15,0.16,0.08-.07,0-.32h0.15l0.24-.42,0.33-.17,0.2-.26a0.33,0.33,0,0,1,.23.12l0.16-.15a0.35,0.35,0,0,1-.13-0.29,0.15,0.15,0,0,0-.1.06Zm-5.41,2.79h0l-0.17-.21Zm3.08-4.6,0.11,0.19Q528,209.79,527.68,209.8Zm2.08,2.09h0.08l0.18-.28-0.17.17A0.29,0.29,0,0,0,529.76,211.89Zm11.73-12.24h0.15a0.33,0.33,0,0,0-.36-0.14Z" transform="translate(-261.08 -108.24)"/><path class="a" d="M353.81,338.47c-0.12-.3-0.37-0.35-0.76-0.15l0,0.1,0.49,0.22a0.69,0.69,0,0,1-.39.69l0.29,0.1,0.1-.29,0.13,0,0.14,0.29-0.52.16,0.14,0.29,0.14,0.05,0.1,0q1.16,2.35-2.68,5.69l-0.34,0-0.11.29-0.14-.05-0.1,0q0.14,0.29-1.5,1.12l-0.29-.11-0.1.29-0.72.25-0.05.14,0,0.1-0.58,0-0.05.14,0,0.1a1,1,0,0,1-.86.2l-0.05.14-0.48.25-1.7.7-0.14-.29-0.29.14,0.14,0.3-0.28.16-0.09-.2-0.1,0,0.05-.14-0.09-.2-0.2.09c0.12,0.26.09,0.44-.11,0.53l-0.14-.05-0.43.35-0.49.23-0.14-.05-0.1,0-0.1.29-0.14-.05,0,0.17-0.54.13-0.25.23,0.39-.3,0,0.17-0.1,0-0.38-.06-0.44.33q-4.21,2-4.82,1.42l-0.05.14-0.18.12-1.87.4,0-.34-0.14-.05-0.1,0,0.09,0.2-0.1,0a1.17,1.17,0,0,1-1.14-.15q-0.72.37-3-2.53l-0.33-.44-0.63-.9,0.09-.07,0.14,0.05,0.1,0,0-.1c-0.06-.13-0.19-0.14-0.37,0l0.32,0.75-0.28-.35,0-.4a0.88,0.88,0,0,0-.84-0.53l-0.1,0,0.09,0.2-0.19.09-0.34,0-0.43.35-1,.48-0.39-.06-0.1.29-0.14-.05-0.1,0-0.43.35a0.58,0.58,0,0,0-.57-0.21l-0.2.09,0,0.1q0.39-.18.48,0l-0.05.14-0.49.23-0.43.11-0.35.28-0.29.14q-0.18.12-.32-0.18l-0.2.09,0,0.34c0.06-.09,0-0.16-0.22-0.22l-0.1,0-0.11.29q-1.36.66-1.66,0.09l0.05-.14,0.2-.09c-0.06-.13-0.22-0.13-0.48,0l-0.09-.2-0.1.29c0.2-.09.33-0.07,0.38,0.06l-0.2.09,0.45,0.39-0.05.14-0.19.09-0.13,0-0.1,0-0.05.14-0.14-.05,0.05-.14-0.09-.2-0.85,0-0.1,0,0,0.1a0.51,0.51,0,0,1,.74.25l-0.05.14-0.1,0c-0.11-.24-0.46-0.27-1-0.09l-0.1,0,0.07,0.09,0.57-.06,0,0.1-0.63.44-0.77.39-0.14-.05-0.05.14-0.29.14c-0.13.06-.24,0-0.33-0.2l-0.05.14-0.09.07-0.34,0a1.15,1.15,0,0,1-.73.73l-1.49.13,0,0.1,0.14,0.05,0,0.1-0.05.14-0.39.18-0.86.19-0.1.29-0.2.09-0.86.19-0.1.29-0.58-.21,0-.1c-0.06-.13,0-0.25.28-0.37l-0.18-.39q-0.29.14-.38-0.06L309,353.24l0.17-.08,0.55,1.17,0.29-.14-1.08-1.29-0.27-.59c-0.06-.13,0-0.24.18-0.32l0-.1q-0.3.14-.39-0.06l0.25-.23,1-.38,0.05-.14,0.29,0.1,0.1-.29,0.62-.2,0.05-.14,0.1,0,0.77-.15,0.05-.14,0.29,0.1-0.09-.2,0.58-.3,0.14,0.05,0.05-.14,0.1,0,0.38,0.06,0.2-.33,0.67-.35,0.14,0.05,0.05-.14,0.58-.3,0.38,0.06,0.2-.33,0.29-.14a1.11,1.11,0,0,1,.81-0.05l0.1-.29,0.29-.14,0.14,0.05,0.09-.07,0.05-.14,0.29,0.1,0.05-.14,0.1,0,0.14,0.05,0.1,0,0.25-.23,0.14,0.05,0-.17,0-.1,0.87-.17-0.09-.2,1.06-.29,0.05-.14,2.9-1.45,0.88-.17,0.09-.31,1-.46c0.16-.09.31,0,0.47,0.23l0.1,0c-0.09-.2-0.07-0.32.06-0.38l0,0.1,0.05-.14,0.1,0c0.13-.06.24,0,0.33,0.2l0.33-.31,0.44-.08,0.1,0-0.09-.2,1.07-.53h0.48l0.29-.4,0.44-.08,0.35-.28,0.23,0.25,0.19-.12,0.2-.33a0.55,0.55,0,0,0,.67.16,0.92,0.92,0,0,1,.69-0.83l0.48-.25,0.63,0.06,0.1,0,0-.1-0.2.09,0.11-.29,0.23,0.25,0.2-.09a1.89,1.89,0,0,1,1-.87l1.64-.83a3,3,0,0,1,1.16-.33l0.05-.14,0-.1,1.7-.7,0.38-.21c0.16-.08.32,0,0.48,0.25l0.19-.09-0.14-.05,0-.1,0.11-.29,0.2-.09c0.33-.15.52-0.17,0.57-0.06l0.25-.23,0.54-.13,0.82-.53,0.29-.14A1.1,1.1,0,0,1,343,336l0-.34,0.52-.16,0.59-.28,0,0.1q0.09,0.19-.3.38l0.07,0.09,0.49-.23q-0.25-.48,0-0.61l1.35-.69,0.14,0.05,0.05-.14,0.73-.22,1.16-.57,0.65-.27-0.09-.2,0.2-.09,0,0.1-0.05.14,0,0.1,0.17,0,0.2-.09c-0.11-.19,0-0.34.23-0.47l0,0.1q0.12,0.19.79-.16l0.43,0.16,0,0.1,0.1,0-0.35-.43,0-.1,0.1-.29,0.18-.12,0.29,0.11,0.26,1.13,2.36,4.86-0.08.28-0.1,0-0.12-.18-0.09.07,0.07,0.09,0.27,0.32,0.05-.14,0.1,0Zm-4.3,1.53c-0.39.18-.63,0.21-0.7,0.09l-0.09-.2q-0.09-.2.2-0.33l0.05-.14,0-.1a0.55,0.55,0,0,1-.53-0.11l0-.1q-0.12-.18.18-0.32l-0.09-.2-0.2.09-0.09-.2,0.2-.09,0-.1a0.29,0.29,0,0,1-.43-0.16l-0.2.09,0.14,0.29,0.14,0.05,0,0.1-0.05.14-0.19.12-1-.27-0.1.29c0.28-.09.45-0.05,0.53,0.11l0,0.1-0.39.18c-0.29.15-.48,0.13-0.57-0.06l-0.29.14c0.09,0.2.07,0.32-.06,0.38l-0.1,0-0.14-.05-0.05.14-0.2.09-0.14-.05,0,0.17-0.39.18-0.29-.1,0.29-.14a0.55,0.55,0,0,0-.53-0.11l-0.05.14,0.14,0.05,0.09,0.2-0.88.41,0-.1,0.54-.37,0-.1-1,.38,0.48,0.25-0.05.14-0.1,0-0.44.09-0.25.23H342l-0.1.29-0.49.23-0.28-.08,0-.34-0.1,0a0.44,0.44,0,0,0-.31.62l-1,.48a0.58,0.58,0,0,1-.82-0.21q-1.3.54-1.5,0.17l-0.1.29,1.12,0,0.43-.35,0.38,0.3-0.67.34a1.43,1.43,0,0,1-1,0l-0.2.09,0.33,0.2-0.05.14-0.1,0c-0.13.06-.27-0.07-0.42-0.4l-0.1,0,0.13,0.54q0.32-.15-0.17-0.25l-0.35.52-0.29.14a3.33,3.33,0,0,1-1.4.45l0,0.17,0,0.1-0.14-.05-0.68.32-0.33.31-0.44.09-0.59.27-0.43.35,0.3,0.58-0.05.14L332.8,347l-0.09-.26,0.11,0.43q0.46,1,2.35.87l0.39-.18a1.33,1.33,0,0,1,1.06-.29l0.05-.14,0.64-.3,0.09,0.2,0.1,0,0.11-.29,0.14,0.05,0.33-.31,0.34,0,0.53-.4-0.44.21c0.13-.06.24,0,0.33,0.2l0.2-.09c-0.09-.2-0.07-0.32.06-0.38l3-1.39,0.29-.14,0.14,0.05,0.24-.26a1.75,1.75,0,0,1,1-.12l0.09-.31,2.52-1.24c0.13-.06.24,0,0.33,0.2L347,343l-0.14-.05,0-.1q2.15-1.66,1.62-2.72l0.29-.14,0-.1q-0.39.18-.48,0l0-.13,0-.1-0.28-.35a2.79,2.79,0,0,0,.91,1.19l0.34,0Z" transform="translate(-261.08 -108.24)"/><path class="a" d="M359.58,348.5l0,0.15,0.09,0.07h0.13L360,349l-0.09.06,0.47,0.43,2.33,3.11-0.09.1-0.09.07a68.61,68.61,0,0,0-5.65,4.84l-0.64.63-1.46,1.12-0.09.07-0.15,0-0.09.07-0.06.28L354,360l-0.12,0-0.19.25-1.59,1.43-0.46,0-0.26.2,0,0.06,0.34-.26,0.09,0.07q0.16,0.21-2.2,2.28l-0.19.28,0-.06q-2.88,2.59-4.06,3.54l-0.15,0V368l-0.24.18-1.46,1.43-0.15,0-0.09.07-3.57,3.64-0.39.2-2.33,2.24H336.8l0,0.13,0.07,0.08-0.82.53-7.58,6.94a0.63,0.63,0,0,1-.78.05l-0.16-.39h-0.13l-0.07-.09-0.18-.37-0.33-.25-0.13-.34-0.07,0-0.75-1.23,0-.06-0.14-.37v0.2l-0.2-.22,3.58-3.14,0.83-.91L329,375l-0.62-.75-0.12-.42-0.38-.22a1.14,1.14,0,0,1-.84.41l0,0.15L323.05,377h-0.14l-1.44-1.82-0.19,0-0.16-.39-0.9-.94,0.14-.35q4.75-3.53,5-3.21l0-.15,0.17-.13q7.9-5,8.43-5.13l0.36-.42,0.15,0,0,0.06,0.36-.42a8.52,8.52,0,0,1,2.71-1.75l0-.15a1.85,1.85,0,0,1,1.14-.51l0.15-.29c0.28-.22.47-0.29,0.56-0.2l0-.13q1.21-.86,1.33-0.71l0-.15,0.09-.07q1.9-1.26,2.25-1.15l0.06-.28q2-1,2.2-.81l0.2-.63,0.68-.53h0.31v-0.14l0.07-.09,2.59-1.42,0-.15,0.09-.07q9.65-6.55,10-6.51l0.15,0Zm-33.06,24.77-0.34.26,0.09,0.07,0.39-.2Zm20-11.77q-1.64,1.23-1.77,1.06v0.13l-0.06,0q-5.68,4.1-5.84,3.89l-0.07.26H338.5l-0.73.56-0.56,0,0,0.13-0.09.07-0.26.1,0,0.11,0.07,0.09-4.31,2.81v0.12l-0.12.06v0.13l1.25,1.66,0.05-.11,0,0.06,2.35-2.12,0,0,0.05-.11,0.36-.28h0.1l0.09-.07a1.21,1.21,0,0,1,.58-0.75l0.45-.17,3-2.53,0.07,0,0-.13,0.06,0H341l2.32-2.3,0.07,0,0.17-.23,1.61-1.41,0,0.06,0-.11,1.14-1Zm-7.36,4-0.17.13,0.07,0.09,0.54-.18,0.09-.07Zm0.33-2.67-0.07.09,0.18,0.37,0.16-.15Zm2-.3-0.63.42,0.12,0.15,0.58-.48ZM343,363l-0.32.11-0.07.09,0,0.06,0.31-.13,0.09-.07ZM343,366.84l-0.08.07,0.3,0,0.09-.06Zm0.66,0.28-0.41.18c0.08,0.1.2,0.08,0.37,0l0.09-.06Zm6.16-6.79-0.33.29,0.07,0.09,0.33-.29Zm1,0-0.09.07,0.29,0,0.07-.09h-0.27Zm1.2-4.2-0.41.22v0.11l0.07,0.09,0.43-.33Zm7.81-6.16-0.24.22,0.11,0.15,0.07-.09Zm0.39,0.69-0.24.22,0.29,0,0.09-.07Z" transform="translate(-261.08 -108.24)"/><path class="a" d="M337,392.86l0.08,0L337,393Zm23.64-6.94a3.18,3.18,0,0,0-.06.37,5.14,5.14,0,0,1-1.49,3.57l-0.1-.09,0,0.17-9.5,11.78,0.08,0.07h-0.13l-0.07.08-0.26.49-0.08-.07v0.15l-0.07.08-0.38.29,0.08,0.07-0.58,0-0.62-.69-0.56-.47-0.44-.23q-1.81-1.5-1.18-1.79,1.49-1.75,9.62-11.71a2.86,2.86,0,0,0,.82-2.72h0l-0.28-.38-1-.85h-0.13l-0.21.25,0.06,0.05-0.14.17-0.22.13-0.29.56-0.07,0-0.62.79-0.22.06-0.14.17,0,0.19h-0.15l-0.07.08L352,387l-0.18,0-0.1.12h0.06v0.15l-0.35.42-0.34.28-0.19.4-0.21.25c-0.05.09-.14,0.1-0.27,0l-0.17.21,0,0.11a0.17,0.17,0,0,0-.12,0l-0.17.21,0,0.17a2.89,2.89,0,0,1-.85.81l-0.26.31v0.08l-0.14.17-0.09,0-0.1.13v0.11h-0.08l-0.24.46-0.31.16,0,0.17-0.07.08-0.24.16-0.13.2,0,0.06-0.07.08,0,0-0.07.08,0,0-0.07,0-0.38.5h-0.15v0.15l-0.21.25a0.18,0.18,0,0,1-.17.07l-0.11,0,0,0.19-0.07.08L346,394a0,0,0,0,0,0,0v0.15l-0.11.09-0.27.45-0.35.2-0.39.59-0.24.12v0.11l-0.05.06v0l-0.07.08-0.07,0-0.09.1-0.7.54,0,0.3-0.12.14-0.5.39,0,0a1,1,0,0,1-.18.17l0,0.25-0.59.07-0.08-.07a0.2,0.2,0,0,1,0-.25l0,0-0.37-.27a0.19,0.19,0,0,1-.14,0l-0.42-.34-0.31-.22,0,0-0.06-.05h0l-0.12-.1,0-.07-0.21-.17,0,0-1.1-.92,0-.17-0.1-.09H339.1l-0.07-.34,0.07-.08h0.11l0.27-.41,0-.1,0.14-.17,0.44-.65,0.28-.33,0.13,0,0.07-.08-0.06-.05,0.15-.05,0.42-.63,1.25-1.38,0.14-.3,0.49-.47,0.28-.33,0.3-.49,0.06,0.05v-0.13l0.55-.53,4.64-5.59,0.27-.24,0.17-.21,0.11-.09,0.23-.41,1-1.25v-0.13l0.15-.05,1.83-2.2h0.13v-0.15l0.15-.19,0.36-.26,0.12-.32,0.09,0,0.1-.2,0.48-.58,0,0,0.32-.26-0.08-.07h0.15l0.07-.08V376.2l0.29-.18,0.12-.32,0.5-.43,0.07-.08V375h0.15l1.61-1.93,0.62-.92L359,371l0,0,0.8-.88,3.09-3.72,0.42-.42v0l0.07-.08v-0.06l0.07-.08h0.11l0.07-.08,0.23-.41,0.13,0,0.07-.08-0.06-.05,0.13,0,0.08-.14a0.33,0.33,0,0,1,.08-0.18l0.93-1.2h0.08l0.07-.08v-0.08l0.27-.24,0.14-.16,0.06,0,0.07,0v-0.1l0.07-.08,0.25-.25,0.24-.29v-0.06l0.19-.19,0.05-.06,0.47-.52-0.17-.14,0.14-.17,0.08,0.07v0.15l0,0,0.24-.29a0.46,0.46,0,0,1,.14-0.38l0.1,0.09,0.52-.62v-0.13a0.31,0.31,0,0,1,.11-0.09l0-.3,0.12-.18,0.31,0,0.67,0.88,0.25,0.21h0l0,0,3.79,3v0.11l0.14,0.08a0.3,0.3,0,0,0-.11.09l-0.07.08,0,0-0.05.06,0.28,0.13,0,0v-0.15l0.07-.08h0.1l0,0a0,0,0,0,0,0,0L374,363.9h0.08l0.12,0.07,0.6,0.92,0.13,0a4.63,4.63,0,0,1,.6,2.36,8.17,8.17,0,0,1-1.07,4,21.28,21.28,0,0,1-1.91,2.84H372.4l-0.09.1-0.34.7-0.13,0-0.86,1-0.34.24-0.19.4-0.29.35-0.43.35-0.42.67-1.14,1.2-0.56.84-0.86.87-0.12.32Q363.51,384.9,360.63,385.92Zm-10.16,3.15,0.07,0.09C350.54,389.09,350.51,389.06,350.46,389.06Zm4.71-4.66-0.06-.05,0,0,0.1,0.09Zm8.84-7.34,2.16-2.56,0.23-.27h0.15l0.12-.36a1.92,1.92,0,0,1,.9-0.58l0-.32,1.89-2.36c0.09-.11.22-0.1,0.39,0l0.16-.19h-0.15l-0.08-.07a4.2,4.2,0,0,0,1.24-2.55,2.32,2.32,0,0,0-1.41-1.81l-0.17-.14,0,0,0,0-3.29,4.26-0.08-.07-0.25.18h0.29v0.17l-0.07.08-0.38.28-0.14.34-0.66.33v0.32l-0.57.26a15.45,15.45,0,0,1-2.55,3.11l-0.24.29h0.17v0.15l-0.09.1a0.24,0.24,0,0,1-.31,0l-0.14.17,0,0-0.06,0L361,376l-0.1.58-0.21.25a3.81,3.81,0,0,1-1.15,1.08l0,0.17,0.08,0.07-0.17,0-0.52.62-0.17.42-0.38.28-0.45.54-0.28.54,0.52,0.39v0.15l0.13,0,0.11,0.16q0.62,0.52,2.36-.47l0.31-.37a1.52,1.52,0,0,1,.89-0.77v-0.15l0.48-.58,0.17,0.14,0.07-.08v-0.32h0.15l0.19-.44,0.31-.2,0.17-.29a0.34,0.34,0,0,1,.24.09l0.14-.17a0.35,0.35,0,0,1-.16-0.27,0.16,0.16,0,0,0-.09.07ZM359,380.45h0l-0.19-.19Zm2.54-4.92,0.13,0.18Q361.81,375.49,361.49,375.54Zm2.3,1.84h0.08l0.15-.3-0.16.19A0.3,0.3,0,0,0,363.79,377.38Zm10.28-13.48h0.15a0.33,0.33,0,0,0-.37-0.1Z" transform="translate(-261.08 -108.24)"/><path class="a" d="M385.13,371.29l0.07,0.28,0.15,0,0.1,0.05,0.21,0.23,0.61,0.17,0.07,0,0.32,0.26,0.15,0,0.09,0,0.26,0.38,0.15,0,0.9,0.43,1.61,0.89,0.59,0.15q0.57,0.42.48,0.61l-0.62,1.26-0.3.88-0.37.54-0.1.44-0.42.39,0,0.15-0.1.19-0.73.11L387,377.8l-0.41-.09,0-.1-0.15,0-0.19-.1,0-.13c-0.35-.06-0.55,0-0.59.09l-0.15.29,0,0.47-0.39.41,0.07,0.28,0,0.1,0-.15-0.07,0-0.25.48,0,0.19-0.4.65-1.22,2.41-0.32.2-0.94,1.95-0.1.43-0.37.3-0.15.53-1.42,2.92-0.12.06,0,0.13,0,0.1-0.22.25,0,0.13-0.3.46,0,0.1-0.08.33-0.32.44-1.09,2.23-0.32.2-0.05.34-0.62,1-0.08.2-0.1.43-0.3.33-0.47,1-0.15,0,0,0.15-0.17.4-0.15,0,0,0.15L374.47,399l-0.62,1.26a40.26,40.26,0,0,1-2.13,3.89l0,0.14-0.32.44-0.92,1.84-0.62,1,0,0.35-0.15,0-0.05.1,0,0.15-0.32.44-0.05.34-0.34.43-0.42.88-0.37.54,0,0.15-0.57.92L367,413.32l-0.45.28-0.87-.54L363.58,412l-0.33-.29-0.39-.08-0.11,0-0.14-.44,0.52-1.07,1.34-2.47,0-.15,0.32-.44,0.57-1.17,0.15,0,0-.15,0.12-.3,0.49-.48-0.09-.29,0.27-.35,0.05-.34,0.29-.09,0.47-1,0.13-.54,0.39-.53,1.17-2.44,0.15,0,0-.14,0.1-.19,0.29-.34,0.08-.45,0.1-.19,0.15,0,0-.15,1.66-2.91,0.28-.83,0.1,0.05,0-.15,0.1-.19,0.63-.8,4.59-9.18,1.26-2.15,0.15-.53,0.1,0,0-.15,0.42-.63,0.52-1.07,0.52-.83,0-.15L380,378l0.2-.69,0.37-.54,0.15-.53,0.22-.25,0-.14,0-.1,0.29-.34,0-.1a0.5,0.5,0,0,0-.34-0.51l-0.15,0-0.07,0-0.31-.28-0.42-.07,0-.39-0.28.13-0.1,0-0.68-.44-0.77-.28,0.05-.34,1.86-3.6a0.76,0.76,0,0,1,.7-0.24l0.63,0.54,0.27-.1,0,0.1,0.15,0,0.42,0.31,0.62,0.32,0.42,0.07,0.31,0.28,0.31,0,0.06,0.12Zm-21.49,36.94-0.05.1,0.29,0.39,0.14,0,0.05-.1,0-.15Zm0.68-.14,0.09,0.29,0.2-.38Zm0.22,1.94-0.15.29,0.29,0.15,0.1-.19ZM364.6,409l-0.2.38,0.29,0.15,0.1-.43Zm0.72,0.25,0,0.1,0.24,0.25,0.15,0,0-.1Zm0.3-.58-0.15,0-0.15.29,0.1,0.05,0.29-.33Zm2.48-8.09-0.15.29,0.19,0.1,0-.1Zm0.2-.87-0.15,0-0.1.19,0.29,0.15,0.05-.1Zm0.57,1-0.1.19,0-.14-0.1,0,0,0.1,0.14,0.44,0.29-.09,0.05-.34Zm0.91,0.83-0.15,0,0,0.1,0.24,0.24,0-.1Zm0.25-.72-0.1.19,1,0.5,0.15-.29Z" transform="translate(-261.08 -108.24)"/><path class="a" d="M395.66,376.12l0.18,0,1.29,0.4,0.13-.08q4.12,0.77,4,1.33l-0.1.09,0,0.11q0.18,0-.5,4.47l0.06,1.46,0,0.1-0.13.08-0.65,4.4-0.05.21-0.1.09-0.11,5.5-0.05.21-0.1.09,0,0.11a11.19,11.19,0,0,1-.2,3.23l0.08,0.13,0,0.1-0.13.08,0.08,0.13,0,0.32-0.13.08,0,0.11q0.21,0.05,0,1.9l-0.11,0a7.43,7.43,0,0,1-.07,2.26H399l0.32-1.42,0.23-.28,0.05-.21v-0.33l0.21-.51,0.33-1.48,0-.44,0.18-.4-0.24,1v-0.45l0.16-.3v-0.33l0.08,0-0.05-.12,0.2-.51,0.25-1.05,0.13-.08L400.8,396l0.05-.21,0.21-.51V395l1.48-5.09-0.08-.13,0.23-.5,0.48-2.11,0.66-2.51,0-.44,0.08,0v-0.33l0.16-.29,0-.44,0.26-.83-0.05-.12,0.74-2.38,0.11,0-0.08-.13,0.05-.21q0.23-.95.88-0.79l1.58,0.38,1.24,0.38,0.68-.06a0.56,0.56,0,0,1,.4.4l-0.08.32-0.13.08,0.08,0.13-0.18.74-0.13.08,0.08,0.13-0.1.53-0.23.5,0,0.66-0.26.61,0.08,0.13,0,0.1-0.13.08,0,0.11,0.08,0.13,0,0.1-0.1.09,0,0.11,0.08,0.46-0.41.9,0,0.54-0.23.72v0.33l-0.23.17,0,0.1,0.13-.08,0.08,0-0.21.51-0.28,1.16a2.57,2.57,0,0,1-.47,1.14l0.16,0.23,0,0.1-0.45.92,0.09,0.1a1.54,1.54,0,0,1-.37.83l0.05,0.13-0.08.31-0.18.4-0.06,1.07-0.37.83,0.05,0.13,0,0.1-0.1.09,0,0.11,0,0.44-0.1.09,0.06,0.54-0.16.32,0.09,0.1,0,0.1-0.37.72,0,0.44-0.28.82v0.33a1.46,1.46,0,0,1-.36.8l0,0.54-0.18.74-0.56,1.64,0,0.34-0.69,2.06-0.12,1-0.21.39,0.08,0.13-0.33,1-0.36,1.47v0.56l-0.26.6-0.56,2.42-0.24.17,0.08,0.13-0.05.21-0.13.08,0.08,0.13-0.36,1v0.11l-0.07.65-0.18.4-0.05.21,0.08,0-0.26.72-0.15.74-0.82,3,0.08,0.13-0.23.5L398.64,424a0.66,0.66,0,0,1-.91.45l-4.29-.9-0.45-.11q-0.37-.09.5-8.52l0.13-.08,0-.11a42,42,0,0,1,.56-6.34l0-1.94-0.06-.1,0.05-.21,0.11-.11,0-.11-0.14-.23,0.13-.08,0-.11q0.81-9.34,1-10.42l0.13-.08-0.08-.13-0.08,0L395.17,396l-0.31.84,0.23-.47-0.25,1-0.1.09,0.05,0.12q-0.62,1.74-2.08,8l-0.13.08,0.08,0.13-0.28.71-0.24,1.11L391.27,411l-0.13.08,0.08,0.13-0.11,0,0.08,0.13-0.23.5-0.35,1.58-0.13.08,0.08,0.13-0.36,1.47-0.13.08,0.08,0.13-0.87,3.35L389,419.84l-0.21.39,0,0.45q-0.4,1.66-.77,1.57l0-.34-0.11,0c0,0.21-.14.3-0.26,0.27l-3-.66-0.68-.05a3.4,3.4,0,0,1,.11-1.72l0.18-.4-0.08-.13,0-.11,0.28-.71-0.08-.13,0.23-.5,0.43-1.9,0.1-.09-0.05-.12,0.21-.51,0.18-.73,0.1-.09-0.08-.13,0.23-.95,0.13-.08-0.08-.13,0.23-.5,0.74-3.16,0.36-1.16-0.09-.1,0.37-1.05,0.33-1.48,0-.31,0.24-.53,0.66-2.84,0.23-.16-0.05-.12,0.31-1,0.18-.74,0-.44,0.51-1.43,0.07-.76,0.61-2.63,0.13-.08-0.08-.13,0.33-1,0.18-.74a28.68,28.68,0,0,1,1.2-4.27l0.05-.21-0.1,0,0.76-2.82,1.45-6.21,0.1-.09-0.05-.12,0-.11,0.18-.4-0.05-.12,0-.11,0.41-1-0.05-.12,0-.11C395.3,376.32,395.49,376.07,395.66,376.12Z" transform="translate(-261.08 -108.24)"/><path class="a" d="M417.6,379.66l0.65,0.18,0.86-.12,0.33,0.1,0.11-.14v-0.11l0.87,0.21,0.21-.22,0.76,0.18,1.73-.15h0.43l0.65,0.08,0.11-.11q2.32,0.06,2.33.47v0.22l-0.19.33,0.22,0.21,0.09,4a0.88,0.88,0,0,1-.83.44l-0.14-.11-0.51.14h-0.54l-0.89-.07,0,0.11-0.22,0-0.14-.11h-0.11c0,0.22-.11.32-0.4,0.33l0.7-.2-1.3,0a0.57,0.57,0,0,0-.64.65l0.12,1.13-0.11.11,0,0.32h0.11l-0.1.76,0,0.05,0.14,0.43-0.21,1,0.11,0.11,0,0.43-0.11.11v0.11l0.11,0.11H422l-0.36-1v0.11l0.14,0.75h-0.11l0.11,0.11-0.18,1.08,0.22,1-0.19.22v0.54l0.11,0.65-0.11.11,0-1.3h0.11l-0.07,1.3V395l0.14,0.75H422v-0.11l1.3,0.18,0.11-.11,3.3,0.13,0.44,0.43-0.07.65,0.11,0.11-0.07,1.08v1.57L427,398.14l0.12,1.46-0.08.54V401a0.54,0.54,0,0,1-.62.33l-1.19,0-0.46-.1-0.67.17-0.32,0-0.13-.11-0.08.11-1.95,0-0.1.43,0.11,0.11v0.32l-0.11.33,0,0.22h0.11l-0.06,2.92,0.19,6.37-0.11.11,0.11,0.11,0,1.84-0.21.22,0.11,0.11v0.22l-0.08.65,0.11,0.11-0.12-.81,0.08,3-0.08.65,0.11,0.11-0.1.54,0,1.51,0.76-.12,0.86,0,0.54,0.1,0.32-.11,0.43,0.05,0.32,0,0.43-.11q1.3,0.07,1.3.29l0.08,2.86L426.9,424l-0.11.11,0,1.4-0.19.22,0.11,0.11V426c0,0.14-.11.22-0.32,0.22l-2,0-0.32.11v-0.11l-0.11.11-0.54-.08-2.48.07-1.3.15V426.3l-0.11.11-0.65-.1-1.08.14-0.11-.11h-0.11l-0.43.11-0.43,0-0.22-.21-0.12-4.54,0-1.73-0.11-.32,0.21-4.43-0.11-.11,0.08-.54L416.29,406l0.1-.43-0.14-.43,0.21-.33-0.22-.21v-0.32l0.19-.33,0-2.49,0.11-.11-0.14-.11,0-1.62,0.1-.43-0.11-.11,0.07-.87-0.11-.76,0.11-.11V397.2l-0.14-.43,0.07-1.08-0.11-.76,0.08-.65-0.11-.11,0.1-.54,0-1.19,0.11-.11-0.11-.11,0.18-1.3-0.11-.54,0.08-.43-0.11-.32,0.15,1.19,0-1-0.22-.65,0.11-.11h0.11l-0.11-.11,0.15-1.62-0.11-.11h-0.11l0.07-1.08V386l-0.11-.65,0.21-.33-0.14-.32,0.1-.43-0.22-.65c0.14,0,.21-0.11.19-0.33l-0.11-.32,0.11-.11h0.11l-0.11-.11v-0.43l0.11-.11-0.14-.11V382a2.91,2.91,0,0,1,.18-1.41l-0.11-.11v-0.21l0.43-.44c0.14,0,.22.08,0.22,0.3h0.11A0.55,0.55,0,0,1,417.6,379.66Z" transform="translate(-261.08 -108.24)"/><path class="a" d="M448.92,401.44a2.7,2.7,0,0,0,.26.27,5.14,5.14,0,0,1,2,3.34l-0.13,0,0.16,0.07,3.69,14.67,0.1,0-0.09.1,0,0.11,0.23,0.5-0.11,0,0.13,0.08,0,0.11v0.47l0.11,0-0.37.45-0.93.08-0.71.17-0.45.22q-2.29.54-2.14-.13-0.5-2.24-3.57-14.73a2.87,2.87,0,0,0-1.68-2.3l0,0H445l-1.29.31a0.39,0.39,0,0,0-.09.1l0.07,0.31,0.08,0,0,0.21,0,0.26,0.27,0.57v0.08l0.26,1-0.09.21,0,0.21,0.16,0.1-0.08.13,0,0.11L444.6,409l-0.14.12,0,0.16,0,0,0.13,0.08,0.13,0.53,0,0.44,0.21,0.4L445.1,411c0,0.1,0,.18-0.14.23l0.06,0.26,0.12,0a0.15,0.15,0,0,0-.09.08l0.06,0.26,0.16,0.07a2.89,2.89,0,0,1,.13,1.16l0.09,0.39,0.06,0,0,0.21,0,0.09,0,0.16,0.1,0.06,0,0.07,0.22,0.47-0.06.35L446,415l0,0.11,0,0.28,0.08,0.23h0.06l0,0.11h0l0,0.11h0v0.09l0.17,0.6-0.08.13,0.13,0.08,0.07,0.32a0.17,0.17,0,0,1,0,.18l0,0.12,0.16,0.1,0,0.1,0,0.43a0,0,0,0,0,0,0l0.13,0.08v0.14c0,0.14.12,0.3,0.2,0.48l0,0.4,0.24,0.66,0,0.26,0.1,0.06,0,0.08,0,0,0,0.11v0.08l0,0.13v0.89l0.26,0.16,0,0.18v0.69a1,1,0,0,1,0,.24l0.22,0.11-0.3.51-0.1,0a0.2,0.2,0,0,1-.22-0.11h-0.05l-0.44.13a0.18,0.18,0,0,1-.12.08l-0.53.13-0.36.11v0l-0.08,0,0,0-0.16,0h-0.09l-0.26.06v0l-1.39.33-0.16-.07-0.13,0-0.08.13-0.31-.15,0-.11,0.06-.1-0.17-.46-0.05-.1,0-.21-0.26-.74-0.1-.42,0.05-.12,0-.11-0.08,0,0-.15-0.25-.72L441.86,419l-0.15-.3-0.08-.68-0.1-.42-0.21-.53,0.08,0-0.1-.09-0.1-.75-1.67-7.07,0-.35-0.06-.26V408.4l-0.18-.43-0.37-1.58-0.1-.09,0-.15-0.66-2.79,0.09-.1-0.13-.08-0.06-.24v-0.45l-0.18-.29,0-.09-0.1-.2-0.17-.74h0v-0.41l-0.11,0,0.08-.13,0-.1-0.13-.08,0-.34-0.18-.29,0-.66,0-.1-0.14-.11,0.08-.13-0.58-2.44-0.36-1.05L436,393.81H436l-0.22-1.17-1.11-4.71-0.08-.59,0,0,0-.1,0,0,0-.11,0.06-.1,0-.11-0.18-.43,0.05-.12,0-.1-0.08,0,0.05-.12-0.06-.15a0.34,0.34,0,0,1-.1-0.17l-0.4-1.46,0-.06,0-.11-0.06,0,0-.35,0-.21v-0.14l-0.07-.07,0-.1-0.05-.35-0.09-.37,0,0,0-.27,0-.08-0.14-.69-0.21,0,0-.21,0.1,0,0.13,0.08h0l-0.09-.37a0.46,0.46,0,0,1-.22-0.34l0.13,0-0.19-.79-0.1-.09a0.3,0.3,0,0,1,0-.14l-0.26-.16-0.08-.2,0.16-.26h1.11l0.31-.08,0,0v0l4.71-1.2,0.1,0.06,0.15-.06a0.32,0.32,0,0,0,0,.14l0,0.1h0l0,0.08,0.27-.15h0l-0.13-.08,0-.11,0.07-.07h0.05a0,0,0,0,0,0,0l0.21-.08,0-.06,0.13-.06,1.1,0.07,0.05-.12a4.64,4.64,0,0,1,2.25.94,8.16,8.16,0,0,1,2.51,3.24,21.21,21.21,0,0,1,1.13,3.23l-0.08.13,0,0.13,0.36,0.69-0.05.12,0.31,1.31v0.42l0.21,0.4,0.11,0.45,0,0.55,0.29,0.74,0.27,1.63,0.33,0.95,0.17,1.21,0.18,0.29Q449.85,398.53,448.92,401.44Zm-5-8-0.74-3.27-0.08-.34,0.08-.13-0.21-.31a1.9,1.9,0,0,1,.08-1.07l-0.29-.15L442,385.21c0-.14.06-0.24,0.27-0.29l-0.06-.24-0.08.13-0.11,0a4.21,4.21,0,0,0-1.29-2.53,2.32,2.32,0,0,0-2.29,0l-0.21,0v-0.05h0.05l1.42,5.19-0.1,0v0.31l0.17-.23,0.14,0.11,0,0.1v0.47l0.19,0.32-0.13.73,0.27,0.19-0.13.62a15.4,15.4,0,0,1,1,3.91l0.09,0.37,0.11-.14,0.13,0.08,0,0.13a0.24,0.24,0,0,1-.19.24l0,0.21h0a0.08,0.08,0,0,0,0,.06v0.14l0.41,0.43,0.07,0.32a3.79,3.79,0,0,1,.18,1.57l0.16,0.07,0.1,0-0.07.16,0.19,0.79,0.23,0.39v0.47l0.16,0.68,0.27,0.55,0.63-.18,0.13,0.08,0.05-.12h0.2q0.79-.18,1-2.16l-0.11-.47a1.51,1.51,0,0,1-.08-1.17l-0.13-.08-0.17-.74,0.21,0,0-.1-0.27-.19,0.08-.13-0.24-.41,0-.37-0.13-.3a0.33,0.33,0,0,1,.22-0.13l0-.21a0.35,0.35,0,0,1-.31,0,0.15,0.15,0,0,0,0,.11Zm-4.47-16,0.08-.13a0.33,0.33,0,0,0-.3.24Zm0.83,47.05,0.07,0,0,0.08Zm0.9-30h0.22C441.33,394.32,441.25,394.32,441.15,394.51Zm2.4,5,0,0-0.27,0h0.25Zm0.45-5.71,0-.06-0.15-.3,0.06,0.24A0.3,0.3,0,0,0,444,393.78Zm0.43,11.11-0.08,0v0l0.13,0h-0.06Zm0.89,6.56h0.11S445.35,411.41,445.32,411.46Z" transform="translate(-261.08 -108.24)"/><path class="a" d="M454.34,371.75l0.12,0.06,0.29-.27q3.84-1.92,7.81,2.62a19.64,19.64,0,0,1,2,3l1.69,3.38q0.68,1.35.17,1.61l-0.14.07-0.63.19-0.51.38-0.39.07-0.19.22,0-.1-0.51.38-0.46.11-0.27.25-0.29,0-0.19.22,0-.1-0.31-.21,0-.13-0.34-.68-0.75-1.32,0-.13,0-.1-0.12-.06-0.12-.42-1.55-2.91-0.44,0,0-.14,0-.1a2.62,2.62,0,0,0-1.43-1.22q-1.33,1-.8,2.09-0.24.12,0.73,2.48l0.24,0.24,0.15,0.53,0.65,0.88,0,0.13a23.08,23.08,0,0,0,2.93,3.61,66.77,66.77,0,0,0,6,4.12l1.38,1.12,2.3,2a5.59,5.59,0,0,1,1.36,1.5l0.17-.08,0,0.13a20.78,20.78,0,0,1,2.25,3.1l0.27,0.11,0,0.1-0.17.09,1,1.65,0.12,0.66,0.15,0,0,0.1,0,0.15,0.15,0,0.1,0.19a6.17,6.17,0,0,1,.58,1.76l0.12,0.06,0,0.1,0.34,1.28,0.15,0.29-0.17.08,0.15,0.29,0.29,1.79a8.94,8.94,0,0,1-1.33,5.26l-0.17.09-0.12-.06-0.43.58-0.12-.06-0.77.51-0.56.28a6.28,6.28,0,0,1-2.78.3l-1.76-.45a9.89,9.89,0,0,1-2.42-1.81l-0.07,0,0-.1,0-.13,0-.1c-0.16.08-.42-0.23-0.77-0.94l-0.17.08-0.39-.77a0.82,0.82,0,0,0-.63-0.65l0-.13-1.16-2.32-0.27-.35-0.12-.42-0.1-.19-0.22-.25-0.17-.52L463,403.66l0.1-.41,0.26-.13,0.36-.06,0.39-.43,0.12,0.06,0,0.1,0.6-.42,0.63-.19,0.19-.22,0.12,0.06a2.45,2.45,0,0,0,1-.76q0.43-.22,1,0.59l0.14,0.65,0.12,0.06,0,0.1,0,0.13,0.31,0.45,0.12,0.42,0.22,0.25,0,0.13,0,0.1,0.27,0.35,0.17,0.52q2.2,3.67,2.88,3.33l0.15,0.29,0-.15,0.07,0,0.17,0.16,0-.14,0-.1,0.29,0a1.15,1.15,0,0,0,.48-1.45,7.59,7.59,0,0,0-.7-2.85l-0.29-.34-0.15-.53-0.24-.24,0.17-.08-0.14-.29a0.22,0.22,0,0,0-.34-0.07l-0.1-.19,0.12,0.06,0.1,0a4.13,4.13,0,0,0-.92-1.23l-0.22-.62q-0.19.1-.63-0.65l-0.07,0L470,400l-0.1,0q-1.18-1.82-1.62-1.61a1,1,0,0,0-.58-0.56q-0.15-.29-0.29-0.22l0-.13-0.1-.19-0.07,0,0.1,0.19-0.1,0q-0.13-.87-1.91-1.82l-0.15,0-0.1-.19c-0.21.11-.41,0-0.6-0.42a3.35,3.35,0,0,1-1.38-.88q-1.23-.77-2.22-1.42c-0.13.06-.29-0.06-0.48-0.36a4.64,4.64,0,0,1-1.55-1.28,3.62,3.62,0,0,0-1-.82l-0.24-.48q-0.22.11-.82-0.8l-0.12-.06,0.07,0a13.42,13.42,0,0,1-2.44-3.49l-0.32-.21,0.17-.08-0.34-.44-0.94-2.31-0.32-.45q0.31-.16-0.36-1.51a11.66,11.66,0,0,1-.39-4.64l0-.13a5,5,0,0,1,.94-2.41Z" transform="translate(-261.08 -108.24)"/><path class="a" d="M483.54,375.75l-0.36-.54H483l-0.27-.48-0.78-.9v-0.13h-0.15l-2.1-2.72-0.43-.34-0.22-.38-0.29-.17-0.56-.81-0.66-.72-0.59-.35V368L477,368h-0.15l-0.9-1.33h-0.15l-0.08.07-0.62-.89-0.14-.16-0.53-.4,0-.39-0.29-.17-0.22-.38-0.75-.53c0.11-.09.09-0.22-0.07-0.37l-0.29-.17v-0.15l0.08-.07h-0.15l-0.28-.33v-0.15h-0.15l-0.07-.08a2.47,2.47,0,0,1-.76-1.2h-0.17l-0.14-.16,0-.61a0.28,0.28,0,0,1,.42.07l0.08-.07c-0.14-.14-0.11-0.36.1-0.66l0.64-.3,0.61-.7,0.54-.33v-0.15l-0.07-.08,1-.63,0-.32q2.66,3.24,3.26,3.93l0.35,0.12v0.15l0.57,0.65,0.08-.07,0.41,0.64,0.94,1,0.36,0.26,0.81,1.27h0.17l0.3,0.31v0.15l0.07,0.08h0.15l0.08-.07,0.51,1.13,0.07,0.08,0.62,0.46-0.1.09h0.17l0.54,1,0.82,0.54,0,0.32,0.35,0.41,0.51,0.42v0l-0.34-.31,0.34,0.35v0.08l0.23,0.23,0,0,0.07,0.08,0.6,0.48,0.16-.14,2.51,3.65,0.2,0.4h0.15l0.25,0.21,0.13,0.32,0.14,0.16,0.08-.07,3.26,3.86,2.45,2.71v0.15H496l1.2,1.35,0,0.3h0.15l0.14,0.16,0.7,1h0.15l0.27,0.48,1.69,1.83L500.6,388h0.15l0.27,0.48,1,1.11,2.8,2.87-1.36,1.36-0.07-.08v0.15l-0.58.36-0.77.85h-0.15l-0.08.07-0.28.38-0.35.3h-0.29l-2.82-3.13L497,391.35l-0.29-.18-2.7-3.49h-0.15l-0.27-.48-4.29-4.79-0.22-.38-0.38-.24,0-.39-0.13.18,0,0,0-.39,0.12,0.18v-0.15h-0.15L487.33,380l-0.1-.2-1.57,1.25-0.28.38-0.06.05h-0.15v0.15l-0.88.84,0.2,0.4h0.15l0.25,0.21,0.11,0.33,0.16,0.15,0.1-.09,1.12,1.42,2.45,2.7,0,0.17H489l1.23,1.33,0,0.32h0.15l0.14,0.16,0.7,1h0.15l0.27,0.48,1.69,1.83,0.32,0.54h0.15l0.27,0.48,1,1.11,2.73,3.24-1.12,1.18-0.07-.08,0,0.17-0.56.34-1,1h-0.17l-0.08.07-0.28.38-0.33.28h-0.33l-3-3.32L489.78,397l-0.29-.18-2.7-3.49h-0.15l-0.27-.48L482.08,388l-0.24-.36-0.36-.26,0-.4h-0.33l-0.21-.24,0-.4-1.65-1.86v-0.13H479L478,383.16l-0.18-.42h-0.17l-0.48-.72-0.6-.48,0-.17-0.07-.08-0.38-.24-0.65-.83-0.58-.5-0.36-.54h-0.15l-0.27-.48-0.78-.9v-0.15h-0.17l-0.67-1.1-0.44-.34-0.22-.38-0.31-.16-0.54-.82-0.66-.72-0.63-.31v-0.15l0.1-.09h-0.17l-0.88-1.35h-0.15l-0.1.09-0.6-.91-0.14-.16-0.55-.38,0-.39-0.31-.16-0.18-.42-0.59-.31c0.12-.11.11-0.23,0-0.39l-0.31-.16,0-.17,0.08-.07h-0.15l-0.28-.33v-0.15h-0.15l-0.07-.08a2.91,2.91,0,0,1-.78-1.19h-0.15l-0.16-.15,0.07-.63c0.1-.11.22-0.08,0.36,0.08l0.08-.07a0.55,0.55,0,0,1,.13-0.68l0.63-.3,0.85-.88,0.32-.13v-0.15l-0.07-.08,1-.63,0-.3q2.9,3,3.33,3.52l0.31,0.16v0.15l0.59,0.63,0.08-.07,0.41,0.64,0.94,1,0.37,0.26,0.83,1.25h0.15l0.3,0.31v0.15l0.07,0.08H475l0.08-.07,0.53,1.11,0.07,0.08,0.6,0.48-0.08.07h0.15l2,2.59,0.82,0.54,0,0.3,0.35,0.41,0.5,0.42v0l-0.34-.31,0.34,0.35v0.08l0.23,0.23,0,0,0.07,0.08,0.58,0.5,0.16-.14-0.07-.08,0.94-.6v-0.15Zm-8.63,3.69,0.2,0.36,0.08-.07-0.25-.29h0Zm5.34-1.87,0.06-.05-0.31-.27v0Zm2.56-6h0l-0.15-.3Zm0,0,0.22,0.34,0.06-.05-0.25-.29h0Zm3-1.08,0.08-.07-0.33-.25v0Z" transform="translate(-261.08 -108.24)"/><path class="a" d="M479,351.08l2-2.7a0.93,0.93,0,0,1,1.31-.27l0.67,0.6-0.09.27,0.25-.15,0.09,0.06,5.66,4.26,0.91,0.4L490,354l0.7,0.19,0.17,0.13-0.16.22,0.74,0.32,7.58,5.78,0.91,0.41-0.07.28,0.09,0.06,0.7,0.18,0.08,0.39,0.68,0.27-0.11.29,0.57,0.05,0.52,0.48,1.25,0.63-0.09.3,0.07,0h0.5l0.15,0.11-0.18.24,0.52,0.12,3.7,2.94,2.41,1.69-0.11.15,0.2-.09,0.72,0.53,1,0.47,0.06,0.42,0.93,0.38-0.09.3,0.07,0H514l0.15,0.11,0.15,0.48,0.67,0.23,3.76,3.05a2.6,2.6,0,0,1-.7,1.4l-1.7,2.3a0.68,0.68,0,0,1-.83.26l-0.28-.44-2-1-0.06-.42-1.1-.51-1.14-1.28-2.46-1.31,0-.4-1.62-1-2.23-1.75-1.24-.65,0.09-.3-0.09-.06L501.58,369l-2.51-2.06,0-.24-1.38-.45-0.13-.46-0.59-.07L496.6,365l-1.46-.85,0.2-.22-0.26.17-0.91-.77-3.27-2.22,0.18-.2-0.25.15-1.06-.88-0.69-.24-0.52-.75L485,356.58l0.18-.24-0.26.17-0.15-.11-1.92-1.22-0.21-.53-0.42.06-0.3-.59-1.27-.77,0.13-.14-0.2.09-0.63-.47,0.09-.3-0.26.17-1-.82Z" transform="translate(-261.08 -108.24)"/><path class="a" d="M488.58,334.71c-0.15.29,0,.51,0.37,0.68l0-.1-0.15-.52a0.69,0.69,0,0,1,.78-0.14l-0.1-.29-0.29.11-0.06-.12,0.14-.29,0.46,0.3,0.14-.29-0.05-.14-0.1,0q1.06-2.4,6.08-1.61l0.25,0.23,0.29-.1,0.05,0.14,0.1,0q0.14-.29,1.83.43l0.1,0.29,0.29-.1,0.65,0.39,0.14-.05,0-.1,0.4,0.42,0.14-.05,0-.1a1,1,0,0,1,.7.54l0.14-.05,0.5,0.2,1.63,0.85-0.14.29,0.29,0.14,0.14-.29,0.3,0.11-0.09.2,0.1,0-0.14.05-0.09.2,0.2,0.09q0.18-.39.48-0.25l0.05,0.14,0.55,0.11,0.49,0.23,0.05,0.14,0.1,0,0.29-.1,0.05,0.14,0.15-.08,0.44,0.33,0.34,0-0.49-.11,0.15-.08,0.1,0,0.2,0.33,0.54,0.13q4.21,2,4.19,2.78l0.14-.05,0.21,0.07,1.51,1.18-0.23.25,0.05,0.14,0.1,0,0.09-.2,0.1,0a1.17,1.17,0,0,1,.62,1q0.75,0.32,0,3.93l-0.13.54-0.28,1.06-0.11,0-0.05-.14-0.1,0,0,0.1c-0.06.13,0,.23,0.21,0.31l0.37-.72-0.08.44-0.32.24a0.88,0.88,0,0,0,.14,1l0.1,0,0.09-.2L514,349l0.25,0.24,0.55,0.11,1,0.43,0.2,0.33,0.29-.11,0.05,0.14,0.1,0,0.55,0.11a0.59,0.59,0,0,0,.21.57l0.2,0.09,0-.1c-0.26-.12-0.36-0.25-0.3-0.38l0.14-.05,0.49,0.23,0.36,0.26,0.44,0.08,0.29,0.14c0.14,0,.16.16,0.07,0.36l0.2,0.09,0.23-.25c-0.1,0-.11.12,0,0.32l0.1,0,0.29-.1q1.38,0.61,1.13,1.21l-0.14.05-0.2-.09c-0.06.13,0,.26,0.3,0.38l-0.09.2,0.29-.11c-0.2-.09-0.26-0.2-0.2-0.33l0.2,0.09v-0.59l0.14-.05,0.2,0.09,0.06,0.12,0.1,0,0.14-.05,0.05,0.14-0.14.05-0.09.2,0.57,0.63,0.1,0,0-.1a0.51,0.51,0,0,1-.29-0.73l0.14-.05,0.1,0c-0.11.24,0.08,0.53,0.59,0.84l0.1,0,0-.11-0.41-.4,0-.1,0.74,0.2,0.8,0.34L524,353.7l0.14-.05,0.29,0.14c0.13,0.06.15,0.19,0.06,0.39l0.14-.05,0.11,0,0.25,0.23a1.14,1.14,0,0,1,1,.09l1.06,1.06,0-.1-0.05-.14,0-.1,0.14-.05,0.39,0.18,0.7,0.54,0.29-.1,0.2,0.09,0.7,0.54,0.29-.11,0.21,0.57,0,0.1c-0.06.13-.21,0.14-0.46,0l-0.18.39q0.29,0.14.2,0.33l-0.87,1.86-0.17-.08,0.55-1.18-0.29-.13-0.29,1.65-0.27.59c-0.06.13-.18,0.15-0.36,0.07l0,0.1c0.2,0.09.26,0.2,0.2,0.33l-0.34,0-0.95-.53-0.14.05-0.1-.29-0.29.11-0.55-.35-0.14.05-0.1,0-0.61-.49-0.14.05-0.1-.29-0.09.2-0.6-.25-0.05-.14-0.14.05-0.1,0-0.2-.33-0.38.06-0.7-.29-0.05-.14-0.14.05-0.6-.25-0.2-.33-0.38.06-0.29-.14a1.1,1.1,0,0,1-.56-0.59l-0.29.1-0.29-.14-0.05-.14-0.11,0-0.14.05-0.11-.29-0.14.05-0.1,0-0.05-.14-0.1,0-0.34,0-0.05-.14-0.16.08,0,0.1-0.69-.56-0.09.2-0.9-.63-0.14.05-3-1.29-0.69-.56-0.3.13-1-.46c-0.17-.06-0.21-0.23-0.12-0.5l-0.1,0c-0.09.2-.2,0.26-0.33,0.2l0-.1-0.14.05-0.1,0c-0.13-.06-0.15-0.19-0.06-0.38l-0.45-.06-0.35-.28-0.1,0-0.09.2-1.09-.48-0.3-.38-0.5,0-0.35-.28-0.44-.08,0-.34-0.21-.07-0.38.06a0.55,0.55,0,0,0-.31-0.62,0.92,0.92,0,0,1-1.08,0l-0.5-.2-0.35-.52-0.1,0,0,0.1,0.2,0.09-0.29.11,0-.34-0.2-.09a1.89,1.89,0,0,1-1.32-.23l-1.69-.73a3.06,3.06,0,0,1-1-.67l-0.14.05,0,0.1-1.63-.85-0.4-.16c-0.16-.08-0.2-0.25-0.11-0.53l-0.2-.09,0.05,0.14,0,0.1-0.29.11-0.2-.09q-0.49-.23-0.41-0.4l-0.34,0-0.44-.33-0.94-.29-0.29-.14a1.11,1.11,0,0,1-.56-0.59l-0.23.25-0.46-.3-0.59-.27,0-.1c0.06-.13.22-0.13,0.48,0l0-.11-0.49-.23q-0.2.5-.5,0.36l-1.39-.59-0.05-.14-0.14.05-0.64-.42-1.19-.52-0.63-.32-0.09.2-0.2-.09,0-.1,0.14-.05,0-.1-0.08-.15-0.2-.09c-0.07.2-.24,0.24-0.5,0.12l0-.1c0-.14-0.17-0.31-0.63-0.5l-0.16-.43,0-.1-0.1,0-0.1.55,0,0.1-0.29.1-0.21-.07-0.11-.29,0.7-.93,2.2-4.93,0.26-.12,0.1,0-0.07.21,0.11,0,0-.11,0.07-.41-0.14.05-0.1,0Zm3.93,2.3c0.39,0.18.57,0.34,0.52,0.48l-0.09.2c-0.06.13-.19,0.15-0.38,0.06l-0.14.05,0,0.1a0.54,0.54,0,0,1,.25.48l0,0.1q-0.07.21-.36,0.07l-0.09.2,0.2,0.09-0.09.2-0.2-.09,0,0.1a0.29,0.29,0,0,1,.16.43l0.2,0.09,0.14-.29-0.05-.14,0-.1,0.14-.05,0.21,0.07,0.41,0.91,0.29-.11c-0.25-.15-0.33-0.31-0.26-0.48l0-.1,0.39,0.18q0.45,0.18.32,0.47l0.29,0.14c0.09-.2.2-0.26,0.33-0.2l0.1,0L494.8,340l0.14-.05,0.2,0.09,0.05,0.14,0.15-.08,0.39,0.18,0.1,0.29-0.29-.14a0.55,0.55,0,0,0,.26.48l0.14-.05-0.05-.14,0.09-.2,0.88,0.41,0,0.1-0.63-.18,0,0.1,0.95,0.53L497,341l0.14-.05,0.1,0,0.35,0.28,0.34,0,0.46,0.54,0.29-.1,0.49,0.23,0.12,0.26-0.23.25,0.1,0a0.44,0.44,0,0,0,.67-0.16l1,0.43a0.58,0.58,0,0,1,.36.76q1.25,0.64,1.09,1l0.29-.1-0.69-.89-0.55-.1V343l0.7,0.3a1.42,1.42,0,0,1,.61.73l0.2,0.09-0.06-.39,0.14-.05,0.1,0c0.13,0.06.12,0.25,0,.58l0.1,0,0.33-.45q-0.32-.15-0.08.29l0.63-.07,0.29,0.14a3.31,3.31,0,0,1,1.24.79l0.16-.08,0-.1,0.05,0.14,0.69,0.32,0.45,0.06,0.35,0.28,0.59,0.27,0.55,0.11,0.25-.6,0.14-.05-0.05-.14-0.14.23,0.25-.36q0.46-1-.84-2.36l-0.39-.18a1.34,1.34,0,0,1-.9-0.63l-0.14.05-0.64-.3,0.09-.2-0.1,0-0.29.11-0.05-.14-0.45-.06-0.25-.23-0.65-.15,0.44,0.21c-0.13-.06-0.15-0.19-0.06-0.38l-0.2-.09c-0.09.2-.2,0.26-0.33,0.2l-3-1.44-0.29-.14-0.05-.14H500.3a1.74,1.74,0,0,1-.75-0.7l-0.3.13-2.57-1.14c-0.13-.06-0.15-0.19-0.06-0.38l-0.2-.09,0.05,0.14,0,0.1q-2.65-.58-3.13.51l-0.29-.14,0,0.1c0.26,0.12.36,0.25,0.3,0.38l-0.12.06,0,0.1-0.08.44a2.8,2.8,0,0,0,.32-1.46l-0.25-.23Z" transform="translate(-261.08 -108.24)"/><g class="b"><path class="c" d="M303.52,281.2l0.09-.74-0.12-.12,0.12-.62v-1.36l0.09-.12-0.12-.12,0.22-3.94-0.12-.62,0.09-.5-0.12-.37,0.12-1.12,0-1.12-0.25-.74,0.09-.12h0.12l-0.12-.12,0.22-1.83-0.12-.12h-0.12l0.12-1.24V266l-0.15-.74,0.25-.37-0.12-.37,0.09-.5-0.25-1q0.25,0,.22-0.37l-0.12-.37,0.12-.12h0.12l-0.12-.12v-0.5l0.12-.12-0.12-.12v-0.12q0.06-1.61.25-1.61l-0.16-.12v-0.25l0.5-.5a0.32,0.32,0,0,1,.31.37h0.12q0-.34.59-0.5l0.77,0.22,1.05-.15,0.71,0.12,0.12-.12v-0.12l1.36,0.22,0.28-.25q-0.12,4.8-.12,5.86l0.22,0.37-0.12.12v1h0.12l-0.12.87,0,1.61,0.12,0.5-0.25,1.7,0.15,0.12,0,0.5-0.12.12v0.12l0.12,0.12h0.12l-0.4,1.36V273l0.19,0.87h-0.15l0.15,0.12-0.25,1.24,0.31,1.08-0.28.25v0.62l0.12,0.74,0,0-0.06-.53,0,0.56-0.06.06,0,0.37h0v0.12l0.15,0.87h0.25l-0.56,5.05-0.12.5,0.12,0.12,0.06,0.37-0.12.37V286h0.12l-0.06,5.79,0.09,4.18-0.12.12,0.12,0.12,0,2.08-0.25.25,0.12,0.12V299l-0.12,1.36,0.12,0.12-0.12.62,0.09,2.85-0.12.71,0.12,0.13-0.12.62,0.06,1.74,0.28,4.59-2.2.15v-0.12l-0.12.12-0.77-.12-1.3.15-0.12-.12h-0.12l-0.53.12h-0.53l-0.25-.22-0.09-4.83,0.06-2-0.12-.37,0.28-5.05-0.12-.12,0.12-.62-0.12-7.38,0.09-.5-0.15-.5,0.25-.37-0.25.06v-0.06l0.25-.37,0,0.25,0.12-.12-0.12-.12-0.06-1.83,0.06-.25-2.29-.09-0.53.12h-0.09l-0.12-.12-0.12.12-1.39.06-0.12.5,0.12,0.12,0.06,0.37-0.15.37,0,0.25h0.15l-0.09,2.08,0.09,4.18-0.15.12,0.15,0.12,0.06,2.08L299,298l0.12,0.12v0.25L299,299.76l0.12,0.13-0.12.62,0.09,2.85-0.12.71,0.12,0.12-0.12.62,0.06,1.74L299,311.41l-1.86.19v-0.12l-0.15.12-0.74-.12-1.61.15-0.15-.12h-0.12l-0.53.12h-0.5l-0.28-.25-0.09-5.11,0.09-2-0.12-.37,0.28-5.05-0.12-.12,0.12-.62L293,290.74l0.06-.5-0.12-.5,0.28-.37-0.28-.25v-0.37l0.28-.37,0-2.85,0.09-.12-0.15-.12,0-1.83,0.16-.5-0.16-.12,0.12-1-0.15-.87,0.15-.12v-0.12l-0.15-.5,0.06-1.21-0.12-.87,0.09-.74-0.12-.12,0.12-.62v-1.36l0.12-.12-0.15-.12,0.25-1.46-0.12-.62,0.09-.5-0.15-.37,0.15-1.12,0-1.12-0.31-.74,0.12-.12h0.15l-0.15-.12,0.25-1.83-0.12-.12h-0.16l0.16-1.24v-0.25l-0.19-.74,0.25-.37-0.16-.37,0.16-.5-0.28-.71q0.28,0,.25-0.37l-0.15-.37,0.15-.12h0.12l-0.12-.12v-0.5l0.12-.12-0.12-.12V260.9a3.34,3.34,0,0,1,.22-1.61l-0.12-.12,0-.25,0.53-.5q0.25,0,.25.34h0.12a0.63,0.63,0,0,1,.62-0.5l0.77,0.22,1.39-.12,0.37,0.12,0.12-.12v-0.12l1.36,0.22,0.25-.25q0.25,4.8.25,5.55l0.15,0.37-0.12.12,0,1h0.12l-0.12.87,0,1.61,0.12,0.5-0.22,1.7,0.12,0.12,0,0.5-0.12.12v0.12l0.12,0.12h0.12l-0.37,1.36v0.12l0.16,0.87h-0.12l0.12,0.12-0.25,3.72,0.31,1.08-0.25.25v0.62l0.12,0.74,0,0-0.06-.53,0,0.56-0.06.06,0,0.37h0v0.12l0.12,0.87h0.25v-0.12l1.27,0.19,0.12-.12Zm-10.26-3.29-0.09.46h0.12v-0.43Zm6,2.39h0.09l-0.06-.46,0,0v0.43ZM306,277l-0.06.46H306v-0.43Zm0,0,0,0,0.09-.37Zm3.44,1.33h0.12l-0.09-.46,0,0v0.43Z" transform="translate(-261.08 -108.24)"/><path class="c" d="M315.2,295h-0.12v-0.62h0.12V295Zm0.9-13.63-0.12.74,0.09,0.15h0.12l0.25-.74v-0.12Zm0.06-8.55-0.15.87,0.31,0.31v-0.12l-0.09-.15v-0.15l0.12-.59-0.09-.15h-0.09Zm-0.09,9.89,0,0.15,0.25,0.31v-0.46h-0.22Zm0.62-9.58,0,0.31,0.31,0-0.09-.59Zm0,10.81,0.12,0.12h0.16l0-.4-0.09,0Zm0.19-9.45,0.28,0.59,0.16-.71h-0.12Zm0.09,9.73v0.46l0.43,0.31v-0.12c-0.14,0-.21-0.21-0.19-0.62Zm0.19-1.61-0.12.62,0.34-.28h0.19v0.74l0.22-.28-0.06-.74Zm0-16.08v0.15l0.19,0.59,0.34-.4Zm0.06,17.14V284l0.28,0-0.19-.34h-0.09Zm0.09-5.3,0.22,0.31,0.09-.15v-0.15h-0.31Zm8.4,33.16-0.34-.12v0.12a12.11,12.11,0,0,1-2.45-.71q-1.64-.59-3.5-3.47a12.79,12.79,0,0,1-1.33-4.37H318l-0.09.13h-0.12v-0.37l0.12,0.13h0.22l-0.22-.87,0.09-.12v-0.12l-0.25-1,0.12-.12h-0.12l0.12-.12V300l-0.12-.12,0.12-.4-0.12-.62,0.09-1h-0.12l0.12-.12v-1l-0.16-.77,0.25-1h-0.25V294.9l0.12-.12v-0.12l-0.25-.74,0.22-.25v-0.77l-0.12-.12,0.12-.12,0-2.48,0.09-1.15-0.25-.74,0.25-1.12-0.12-.12,0.09-.62v-0.16l-0.12-.5,0.12-.12v-0.25h-0.12v0.25h-0.12v-0.37l0.25-.25v-0.25l-0.12-.12,0.12-.12v-0.25l-0.12-.37,0.09-.62v-0.9l-0.12-.12,0.22-1.74h-0.12l-0.12.12h-0.12v-0.12l0.37-.62-0.12-.53,0.09-2,0-1.39-0.12-.5,0.12-.12v-0.12l-0.25-1.12,0.12,0.12h0.12l-0.06-3.5-0.12-.5,0.12-.37-0.12-.4h0.25l-0.12-.37q0.22-3.25.65-3.25l0-.74a2.29,2.29,0,0,0,.46-1.27l0.65-1.27-0.09-.12v-0.12l0.19-.62,0.12,0.12h0.12a6.91,6.91,0,0,1,1.52-1.89q0-.37.9-0.65a4.42,4.42,0,0,1,1.36-1.12l0.12,0.37,0.34-.37h0.12l0.12,0.12,1.61-.25h1.05v-0.28a3.11,3.11,0,0,0,2,.71,5.26,5.26,0,0,1,1.86,1.33,2.84,2.84,0,0,1,1.3,1.61l0.12-.12h0.09a8.93,8.93,0,0,0,1.21,2.73l-0.09.12v0.12a6.78,6.78,0,0,1,.59,2.63v0.25h0.12v-0.37h0.12v0.12l-0.12.62,0.15,2.51-0.09.62h0.22l-0.22.37,0.34,1-0.25.25h-0.09l0.09,0.65,0,0.12-0.09.87h0.22L334.2,275l0,0.87q0,0.65.22,0.65l-0.22.74,0,0.62,0.09,0.5-0.22,1,0.12,0.12-0.12.16,0,0.5q0,0.87.22,0.87l-0.19,2.14,0.09,0.12v0.12l-0.09.5,0.09,0.5-0.19,1.49h0.22l-0.09.65,0,4.49,0.12,1.49-0.12-.12h-0.09l0,0.12,0.09,1-0.09.37,0.09,0.74v0.12l-0.06.87h0.09l-0.09.37,0.09,0.53-0.09.12,0.09,0.37h0.12l-0.31,1.74,0.12,0.74v0.4l-0.09.12,0.09,0.12v0.74q-0.22,0-.53,3.63l-0.09-.12h-0.12l-0.25.74h0.12a18.49,18.49,0,0,1-1.8,3.29A7.78,7.78,0,0,1,325.71,311.57Zm-8.24-37V275l0.31,0,0-.43h-0.34Zm0.19-9.61-0.12.43,0.34,0-0.09-.46h-0.12Zm-0.09,12.55,0.22,0.31,0.12-.15v-0.15h-0.34Zm0,7.1v0.31l0.53,0.31,0.22-.4,0.31,0.16,0.12-.12v-0.15l-0.09-.16-0.43,0v0.28l-0.34-.31Zm0.12-2.36,0,0.28,0.43,0v-0.16l-0.12-.12,0-.15Zm0.19-9.76,0.31,0,0-.4Zm0.19,8,0,0.28h0.34v-0.25Zm0.31-18.44-0.09.16v0.28h0.31v-0.16Zm0.12,23.49-0.22.25V286l0.43,0v-0.15Zm-0.06,1.15,0.09,0.19-0.22.71h0.22l0.22-.25,0-.16-0.12-.15,0.12-.15,0-.43H318.7Zm-0.09-10.32,0.09,0.12,0.09,0,0-.43ZM319,287.27l-0.09.12v0.28l0.28,0,0-.15Zm0.19-9.89v0.28l0.31,0v-0.31h-0.31Zm0.15,1.77v0.28l0.09,0,0.22-.31h-0.31Zm0.19-5-0.09.15v0.31h0.06l0.28-.28-0.12-.19h-0.12Zm0.06,6.94,0,0.31,0.4,0.31,0-.28-0.19-.31Zm0.19-9.58v0.15l0.4,0v-0.28Zm0.19,3.13-0.12.43v0.12l0.09,0,0.12-.43v-0.15h-0.09Zm-0.12,8.55,0.28,0.46,0-.59Zm0.06,3.69,0.19,0.31,0.09,0V286.9Zm0.06-14.75,0.09,0.16,0.09,0,0-.46Zm0.19,13.29,0.09,0.43,0.22-.25v-0.31h-0.09l-0.09.15Zm0.37,0.93v0.28l0.34,0,0.22-.28v-0.15H321Zm0.15,2-0.12.09v0.16l0.12,0.15,0.09,0,0.12-.16,0.19,0.31,0.37-.43,0.06,0.19v-0.31l-0.06,0-0.46.12Zm0.31-13-0.22.28v0.12h0.09l0.34-.09Zm-0.22,5.14v0.43h0.12l0.22-.25v-0.31Zm0.09-9.45v0.31H321l0.15-.59h-0.12Zm0.31,15.8L321,287v0.15l0.31,0Zm-0.06-12V275a0.74,0.74,0,0,0,.4.5l-0.28-.65h-0.12Zm0.28,14.5v0.31h0.09l0.22-.28Zm0.09-5.18v0.31l0.31,0,0.25-.28V284Zm7.1,18.93v-0.28l0.09-.81-0.12-.12,0.25-3.25-0.19-2.32,0.12-3.38v-1.05l0.09-.81-0.12-.43,0.12-.12V290.4l-0.12-.4,0.09-1.92v-0.56l-0.15-1.36,0.12-.81-0.12-.77,0.09-1-0.12.15h-0.15v-0.15l0.28-.4-0.12-.68a1.6,1.6,0,0,1,.22-1l-0.12-1.36v-1.36l0.09-.81-0.12-.37,0.09-1.92-0.12-.12v-0.15l0.12-.53v-0.4l-0.12-.56,0.09-.53v-1l-0.12-.12,0.12-.12v-0.15L328.56,271l0.12-2v-0.43q0-1.33-.4-1.33l0.12-.12v-0.81a0.36,0.36,0,0,1-.37-0.43h-0.25a1.14,1.14,0,0,0-1.15-1.08q0-.25-0.9-0.22V265l-0.34-.28h-0.12v0.12L325.4,265v0.12a1.39,1.39,0,0,0-1.3,1.27h-0.28V267l0.12,0.12v0.12l-0.37.43,0.12,0.12h-0.12l0.12,0.12,0,0.53h-0.25v0.4l0.37-.28v0.12l-0.53.84,0.31,1.24-0.28.65,0.15-.12h0.15v0.4l-0.15.4h0.25l-0.09.53h-0.15v-0.25h-0.15v0.12l0.15,0.59-0.12,1.05h0.31v0.28l-0.28,1.92,0.15,0.12-0.15.68v0.25l0.15,0.12-0.15.16v0.81h0.15v-0.4l0.12,0v0.31l-0.25.93,0.19,0.12v0.12l-0.31,1.52q0.4,0,.43.81l-0.28.25v0.15l0.19,0.16-0.31,1h0.31v0.25h-0.31l0.34,1.61-0.19.15,0.28,0.28-0.4.5,0,0.71h0.28v0.4h-0.28v0.43h0.12v-0.31h0.28v0.12l-0.28.43v0.12l0.15,0.68h-0.28l0.15,0.65v0.34l-0.25,1.05a1.3,1.3,0,0,0,.43,1.08l-0.12,1.36V294h-0.28v0.37h0.28l0,0.28-0.28.4v0.16l0.12,0.5-0.12.43,0.28,0.25-0.15.19v0.25h0.15v-0.25h0.12l0,0.53h-0.4v0.4h0.28v0.93h-0.15V297.9l-0.12,0,0,2.57,0.12-.15h0.12v0.28l-0.25.81a4.31,4.31,0,0,0,1.05,3.1l0.12-.16h0.09a1.42,1.42,0,0,0,1.27,1.09l0.5,0a3.35,3.35,0,0,0,1.83-1.89Q328.31,303.11,328.56,303.11ZM325,290.84v0.28l0.4,0,0-.15Zm0.06,1,0.06,0.62,0.22,0v-0.15l-0.09-.46Zm0.77-5.67,0,0.15,0.43,0.19v-0.31Zm0,2.2,0.06,0.46H326v-0.43Zm0.4-2.6,0.22,0,0.34-.43-0.22,0Zm1.36-4.31v0.25l0.19,0,0.25-.25Zm0.34-13.73-0.09.16,0,0.25,0.31,0V268Zm0.19-4-0.12.4,0.15,0,0-.43h-0.06Zm0,26.56,0,0.16,0.34-.43h-0.12Zm0.46-3.94,0,0.43,0.22-.25-0.09-.19h-0.09Zm0-6v0.4l0.28,0.19v-0.15l-0.09-.43h-0.19Zm0.06-15.06,0,0.71,0.22,0,0-.74h-0.22Zm0.25,19.68v0.28h0.12l0.31-.12v-0.15h-0.43Zm0.09-9.76v0.16l0.19,0.31h0.12Zm0.15-8.71,0.06,0.77h0.22l-0.09-.77h-0.19ZM330,282.22l0,0.56,0.19-.28Zm0-13.91,0,0.15,0.22,0.34,0.12-.74h-0.09Zm0.09,21.13,0,0.46h0.09l0.15-.43Zm0.15-27.58,0,0.4,0.25-.25v-0.16h-0.22Zm0.65,4.9v0.46l0.22,0v-0.46Zm0.19-6.79v0.59l0.19,0v-0.12l-0.09-.46Zm0.28,24.26,0.22,0.31,0.09-.16v-0.15h-0.31Zm0.22-17.57v0.15h0.06l0.25-.28v-0.12h-0.12Zm0.09,7.13,0.22,0.28h0.09l0.16-.56Zm0.06-9,0,0.74,0.22-.28,0-.15Zm0.34,4.9v0.43l0.19-.28,0-.12Zm0.22,13v0.15l0.22,0.31v-0.46h-0.22Zm0.25-19,0.09,0.74h0.09l0.09-.16,0.12,0-0.31-.62h-0.09Z" transform="translate(-261.08 -108.24)"/><path class="c" d="M349.23,258.45q0.9,0,.9.37h0.12q0-.37.22-0.37h0.12v0.25a63.58,63.58,0,0,1,1.08,8.06l-0.12.12,0.12,0.12v0.37l-0.12.12,0.25,0.25v0.37l-0.12.65h0.22l0.12-.12V269a7,7,0,0,0,.34,2.63v0.12l-0.09.12,0.31,1.77h-0.22v0.25h0.22v0.74l0.12,0.4q0.15,2.63.43,2.63l-0.09.37,0.09,0.74-0.09.5,0.22,0.4-0.12.37,0.34,1.36h-0.12l0.22,1.52-0.09.12,0.22,0.77-0.12.37,0.34,1.12-0.12.37v0.12l0.12,0.12v0.16l-0.12.12a4.49,4.49,0,0,1,.46,2v0.15l-0.09.12,0.43,2.51-0.22.5v0.12h0.12l0.09-.12v0.74l-0.09.9h0.09l0.12,0.37,0.09,0.12h0.12v-0.12l-0.12-.12,0.22-.77v-0.12h-0.09l-0.12.12L355,290.9h0.12l0.09,0.12h0.12v-0.25a0.33,0.33,0,0,1-.34-0.4l0.34-2.63v-1h0.22l-0.09-.12L355.7,285l-0.12-.37,0.22-.62H355.7l0.46-2.91,0.09,0.12,0.22-.25-0.43-.12a7.31,7.31,0,0,0,.34-1.77h-0.12l1-7.65h-0.09l0.43-3.53h-0.12l0.93-6.54q0-2.88.65-2.88l0.34,0.12,0.53-.12,0.16,0.12v-0.12l0.09,0.12,0.12-.12,0.77,0.12h0.53l0.12-.12,0.12,0.12h0.25l0.09-.12v0.12l0.43-.12,1.36,0.12,0.56-.12,0.09,0.12v-0.12l0.43,0.12h0.12l0.09-.12,0.34,0.12v-0.12a0.85,0.85,0,0,1,.9,1v0.12l-0.09.12,0.09,0.74-0.09,1.39,0.09,1.74v0.53l-0.09.12,0.22,0.74h-0.22l0.22,0.74-0.12.12v0.9l0.12,0.62-0.12.37v0.65l0.12,0.12-0.22.5,0.22,0.5v0.12l-0.12.12v0.12l0.12,0.12-0.12.53,0.12,0.5-0.12.5v1.39l0.12,0.12h-0.12l0.12,0.37v0.12l-0.12.12,0.12,0.37-0.12.74,0.12,1.15-0.12.62,0.22,0.9-0.22,1.12,0.12,0.62v0.12l-0.12.16v0.12l0.12,0.12-0.12,1,0.12,0.5v0.12l-0.12.12h0.12l-0.12.65,0.12,1.36v0.12l-0.12.65h0.22l-0.22,1,0.12,0.5-0.12.53,0.22,2.26-0.09.62,0.09,0.5-0.09.5v0.25l0.09,1.39-0.09.37,0.22,0.65q-0.22,0-.22.62v1.49l-0.12.15,0.22,1.12-0.09.62v0.65l0.09,0.12h-0.09l0.09,0.12v0.12l-0.09.12v4l0.09,0.62-0.09.37v3.53l-0.12.13,0.22,0.5-0.09.74,0.09,0.53-0.09.5v0.37l0.09,0.13h-0.09l0.09,1.15-0.31,1.12-0.59-.15h-0.09l-0.12.15-0.09-.15h-1.46l-0.56.15-0.12-.37h-0.22v0.22H361.5l-0.12-.46v-0.12l0.12-.12v-0.12l-0.12-.12,0.12-.4-0.12-2.63v-1.24l0.12-.9-0.12-.5v-0.37h0.12v0.25h0.09l0.25-.25c-0.23,0-.34-0.08-0.34-0.25h-0.22V304.1l0.09-.12v-0.4l-0.09-.74,0.09-.62v-0.65l-0.09-.12h0.09l-0.09-.5v-0.12l0.09-.12-0.09-.62,0.09-.37v-0.12l-0.09-.12,0.09-.53v-0.87l-0.09-.74,0.09-.65v-0.12l-0.09-.62,0.31-.12v-0.12h-0.22v-0.5l-0.09-.65,0.09-.37V294l-0.09-.12h0.09l-0.09-.62,0.09-.37h-0.09l0.22-1.39q-0.22,0-.22-0.87v-0.9l0.09-.12h-0.09l0.09-1.24-0.09-.65,0.09-.12-0.09-.74V286l-0.12-.12,0.12-.12v-1.49l-0.12-.65,0.12-.37V282l0.09-.12-0.09-.12,0.09-.53v-0.12l-0.09-.12,0.09-.37-0.22-.25,0.12-.87v-0.28l-0.12-.12,0.12-.12v-1.61h-0.12l-0.09.5h-0.12l0.12,0.37v0.12l-0.12.12,0.22,0.62h-0.09l-0.12.12,0.12,0.65h-0.22v0.74l-0.12.62,0.12,0.12-0.22.65a33.63,33.63,0,0,1-.71,5.52l0.16,0.12-0.25,1.64,0.09,0.5a33,33,0,0,0-.65,5.14H359l-0.12-.12V295l0.34,0.12-0.56,4.12,0.12,0.16-0.34,1v0.13l0.12,0.12v0.13l-0.12.12,0.12,0.37q-0.22,0-.22,1.89v0.12l-0.22.25,0.09,0.4-0.22.5v0.12l0.12,0.12v0.12h-0.25l0.12,0.5a7.86,7.86,0,0,0-.25,2.26c0,0.25-.07.37-0.22,0.37l0.09,0.4-0.31,2.76,0.09,0.13h-0.09v0.22h-0.43l-0.12-.12-0.12.13H356.6l-0.12-.12-0.09.13h-1.46l-0.12.15c0-.19-0.27-0.28-0.81-0.28l-0.31.13a0.74,0.74,0,0,1-.22-0.59h-0.12v0.59h-0.22l-0.09-.12-0.68-3.87c0.23,0,.34-0.08.34-0.25v-0.5q-0.47,0-.81-2.39H352L351.8,303l0.34-.37v-0.25l-0.12-.12-0.12.12H351.8l-0.12-.12,0.12-.12-0.25-.77c0.14,0,.23-0.21.25-0.62h-0.25v-0.12l0.12-.87q-0.37,0-.65-3.66l0.09-.12H351q-0.12-2.51-.34-2.51,0-2.26-.43-2.26l0.09-.37L350,288.23v-0.12l0.12-.12-0.34-1.86V286l0.09-.12-0.22-.5v-0.12l0.12-.12-0.12-.5v-0.25h0.22v-0.12q-0.43,0-.43-1.15l0.12-.12-0.22-.37v-0.12h0.22v-0.12l-0.34-.9h0.12q-0.06-.5-0.34-0.5v-0.12h0.22l-0.12-.5v-0.12l0.12-.12L349,278.81h0.09l-0.22-.5,0.12-.87h-0.22l-0.12.12v-0.25h-0.09l-0.22.25v0.37l0.09,0.12-0.09.12v0.12l0.22,0.37v1.39l-0.12.12,0.12,0.12v0.87l-0.22.37h0.22V282l-0.12.12,0.12,0.12v1.36l-0.12.12h0.12q0,0.28-.46.28v0.25l0.12-.12,0.34,0.12v0.12l-0.34.62c0.23,0,.34.08,0.34,0.25v0.25l-0.12.12,0.12,0.12V286l-0.12.16,0.12,0.12h-0.22v0.25h0.22v1.12l-0.22.25,0.22,0.25-0.12.12,0.22,0.9-0.09.5v1.15l0.09,0.62-0.09.37v0.74l0.09,0.12h-0.09l0.09,0.4-0.09.37v0.12l0.09,0.12v0.12h-0.22l0.12,0.87v1h-0.22v0.5h0.22l-0.12.12,0.12,1.27v0.12l-0.12.12h0.12l-0.12.62v0.12l0.12,0.62-0.22.4v0.12h0.22v3.5l-0.12.12,0.12,0.12v1.39h-0.12l-0.09-.12h-0.12v0.37h0.34v0.5l-0.22.25,0.31,1.52-0.09.5v1l0.09,0.12h-0.09l0.09,0.12-0.22.74V310l0.12,0.12-0.12.9,0.12,0.34-0.81.13h-0.12l-0.09-.12v-0.09l0.09-.12v-0.25h-0.22l-0.22.59-1.33-.12-0.68.28v-0.15l-0.09-.12-0.43.13-0.46-.12-0.46.13h-0.53l-0.12-.34h0.12a0.32,0.32,0,0,0-.34-0.37v-0.12l0.12-.12v-2.29l0.09-.62-0.22-1H343l0.09-.12-0.09-.37,0.09-.4-0.09-.5v-0.37l0.09-.12a0.32,0.32,0,0,0,.34-0.37v-0.12c-0.23,0-.34.17-0.34,0.5h-0.22q0-1,.56-1v-0.25h-0.22v-0.12l0.09-.12v-0.12h-0.22l-0.09.12,0.09-1-0.09-1v-0.74h0.22l-0.22-.37,0.09-.5L343,299V298.8l0.09-.12-0.09-.12v-0.87l-0.12-.65,0.12-.5h0.22l-0.34-2.63,0.12-.5v-2l0.09-.12-0.09-.12v-2.26l0.09-.65-0.09-.37v-0.12l0.09-.5-0.22-.87,0.12-.12v-0.9l-0.12-.12H343l0.09-.12V285l-0.09-.12V284l0.09-2.42-0.22-.5V281l0.12-.12-0.12-.12h0.22q0,0.37.22,0.37V281l-0.31-.5v-1.52h0.22a3,3,0,0,1,.53-1.24h-0.09q-0.34,0-.34.5h-0.22L343,276.92V276.3a3.57,3.57,0,0,1,.22-1.39H343v-0.5l0.53,0.12v-0.25l-0.09.12-0.56-.25,0.34-.87V273h-0.12l-0.09-.4,0.09-.12-0.22-.87h0.43v-0.12a0.25,0.25,0,0,0-.31-0.25V269h0.31v-0.25l-0.09-.12h-0.12l-0.09.12v-1.15l-0.12-1.36,0.12-.4-0.12-.37v-0.12H343v0.25h0.09v-0.37h-0.22l0.12-.62v-0.25l-0.12-.12H343l-0.12-.37v-0.16l0.12-.12v-0.12l-0.12-.12q0.25-1.12.65-1.12v-0.65l-0.31-.12q0,0.65-.34.65l0.12-1.27-0.12-.5H343v-0.25l0.09,0.12,0.22-.25H343V259.6l-0.12-.9,1.67-.25,0.43,0.12,0.12-.12v0.12l0.65-.25,0.34,0.12q0.25,0,.25.5h0.22v-0.37l-0.12-.12,0.34,0.12h0.12l0.09-.12,0.56,0.12,0.09-.12v0.12h0.12l0.12-.12h1.21l0.12-.12v0.12Z" transform="translate(-261.08 -108.24)"/><path class="c" d="M377.05,258l0.74,0.22,1-.12,0.37,0.12,0.12-.15v-0.12l1,0.25,0.25-.25,0.87,0.22,2-.15h0.5l0.74,0.09,0.12-.12q2.67,0.09,2.66.56v0.25l-0.22.37,0.25,0.25,0.06,4.59a1,1,0,0,1-1,.5l-0.15-.12-0.59.16h-0.62l-1-.09,0,0.12-0.25,0-0.15-.12h-0.12q0,0.37-.46.37l0.81-.22-1.49,0a0.66,0.66,0,0,0-.74.74l0.12,1.3-0.12.12,0,0.37h0.12l-0.12.87,0,0.06,0.15,0.5-0.25,1.12,0.12,0.12,0,0.5-0.12.12v0.12l0.12,0.12h0.12l-0.4-1.12v0.12l0.16,0.87h-0.12l0.12,0.12-0.22,1.24,0.25,1.12-0.22.25v0.62l0.12,0.74-0.12.12,0-1.49h0.12l-0.09,1.49v0.81l0.15,0.87H382V276.3l1.49,0.22,0.12-.12,3.78,0.19,0.5,0.5-0.09.74,0.12,0.12-0.09,1.24V281l-0.12-1.74,0.12,1.67-0.09.62v1a0.62,0.62,0,0,1-.71.37l-1.36,0-0.53-.12-0.77.19L384,283l-0.16-.12-0.09.12-2.23,0-0.12.5,0.12,0.12V284l-0.12.37,0,0.25h0.12L381.42,288l0.15,7.31-0.12.12,0.12,0.12,0,2.11-0.25.25,0.12,0.12v0.25l-0.09.74,0.12,0.13-0.12-.93,0.06,3.47-0.09.74,0.12,0.12-0.12.62,0,1.74,0.87-.12,1,0,0.62,0.12,0.37-.12,0.5,0.06,0.37,0,0.5-.12q1.49,0.09,1.49.34l0.06,3.28,0.12,0.62-0.12.12,0,1.61-0.22.25,0.12,0.12v0.12c0,0.17-.12.25-0.37,0.25l-2.29-.06-0.37.13v-0.12l-0.12.13-0.62-.09-2.85.06-1.49.15v-0.12l-0.12.12-0.74-.12-1.24.15-0.12-.12h-0.12l-0.5.12-0.5,0-0.25-.25-0.09-5.21,0.06-2-0.12-.37,0.28-5.08-0.12-.12,0.09-.62-0.19-9.92,0.12-.5-0.15-.5,0.25-.37-0.25-.25v-0.37l0.22-.37,0-2.85,0.12-.12-0.16-.12,0-1.86,0.12-.5-0.12-.12,0.09-1-0.12-.87,0.12-.12v-0.12l-0.15-.5,0.09-1.24-0.12-.87,0.09-.74-0.12-.12,0.12-.62,0-1.36,0.12-.12-0.12-.12,0.22-1.49-0.12-.62,0.09-.5-0.12-.37,0.16,1.36,0-1.12-0.25-.74,0.12-.12h0.12l-0.12-.12,0.19-1.86-0.12-.12h-0.12l0.09-1.24v-0.25l-0.12-.74,0.25-.37-0.16-.37,0.12-.5-0.25-.74c0.17,0,.24-0.12.22-0.37l-0.12-.37,0.12-.12h0.12l-0.12-.12V261l0.12-.12-0.16-.12v-0.12a3.33,3.33,0,0,1,.22-1.61l-0.12-.12v-0.25l0.5-.5q0.25,0,.25.34h0.12A0.63,0.63,0,0,1,377.05,258Z" transform="translate(-261.08 -108.24)"/><path class="c" d="M396.36,258l1.86,0.06,0.37-.16,0.12,0.37h0.12l0.25-.25,0.12,0.12h0.12l0.37-.25,0.12,0L400,258l0.12,0.37a0.5,0.5,0,0,1,.5.62l0,0.37-0.12.5,0.12,0.5,0,0.87-0.12.12,0.12,0.12-0.12.62,0,0.25h0.12l-0.12.62,0.12,6.07-0.12.12,0.12,0.12v0.12l-0.12.12,0.12,0.12,0,0.25h-0.25l0-.37h-0.12l0,0.5,0.37,0.62-0.43,2.11V273h0.25l0.06,3-0.12.5,0.12,0.5,0,0.62-0.12.12,0.12,0.37-0.09,1.12,0.12,0.12-0.12.62,0,0.12,0.12,1.12-0.09.5,0.12,0.12-0.25,1.12,0.15,0.12v0.74l-0.19,2.48,0.12,0.5-0.12.37,0.12,0.12-0.22.25,0.25,0.25-0.12.62,0.06,2.48-0.12.62,0.15,0.74,0,2-0.37.5,0.28,0.5v7.38l-0.12-.56,0.12,0.12v0.12l-0.12.12v0.12l0.15,0.74h-0.12l0.12,0.13-0.22,2.23,1.86,0.09-1.61,0,0.5,0.12,0.5-.12,0.25,0,0.12,0.12,0.12-.12h0.5l1.74,0.09,0.62-.28c0,0.17.37,0.29,1.12,0.37l0.06,3.22-0.22.37,0.25-1.3-0.12.93,0.15,0.62a3.76,3.76,0,0,1-.34,1.83l-1.49-.09-0.5,0-0.5-.09-0.5.12h-0.5l-0.37-.22-0.25.25h-0.12l-0.12-.12-0.12.12-3.47-.25-0.12-.09-0.62.25v-0.12l-0.12.13h-0.12l-0.12-.12h-0.12l-0.12.13-0.62-.09-0.87.12-0.25-.34,0.22-.37-0.25-.25,0-1.05,0.25-.37-0.25-.37,0-.74,0.12-.12-0.12-.12v-1l0.22-.37v-0.12l-0.25-.25,0.09-.87,0-2,0.22-1-0.12-.12h-0.12l0.12-.62-0.06-2.11,0.25-.25-0.28-1.86,0.25-.5-0.12-.12,0-.74,0.12-.5-0.25-.37,0.09-.62-0.06-3,0.25-.37v-0.25l-0.28-.37,0-1.86,0.25-.37,0-1.74,0.25-.37-0.28-.37,0.25-.37-0.25-.25,0.22-.74-0.25-.25v-0.87l0.22-.37-0.25-.25v-0.25l0.46-.74v-0.12l-0.34.25-0.15-.12,0.12-.12,0-1.74,0.25-.37-0.37-.25,0.31-2.23q-0.25,0-.25-0.37l0-3.84h0.12l-0.12-.12v-0.74h0.37v-0.12q0-.25-0.37-0.25l0-.5,0.12-.12-0.12-.12,0.09-1.24,0-2.11,0.12-.5-0.15-.5v-0.5l0.09-1.86-0.15-.87h0.12l-0.12-.12v-0.12l0.12-.12-0.15-.87v-0.12q0.06-.74.37-0.74l-0.15-.12v-0.37l0.12-.12-0.12-.12,0-1.74,0.37-.4h0.37l0.62,0.12,0.12-.12V258Z" transform="translate(-261.08 -108.24)"/><path class="c" d="M413.28,258l0.74,0.22,1-.12,0.37,0.12,0.12-.15v-0.12l1,0.25,0.25-.25,0.87,0.22,2-.15h0.5l0.74,0.09,0.12-.12q2.67,0.09,2.67.56v0.25l-0.22.37,0.25,0.25,0.06,4.59a1,1,0,0,1-1,.5l-0.15-.12-0.59.16H421.4l-1-.09,0,0.12-0.25,0-0.15-.12h-0.12q0,0.37-.46.37l0.81-.22-1.49,0a0.66,0.66,0,0,0-.74.74l0.12,1.3-0.12.12,0,0.37h0.12L418,268l0,0.06,0.15,0.5-0.25,1.12,0.12,0.12,0,0.5-0.12.12v0.12l0.12,0.12h0.12l-0.4-1.12v0.12l0.16,0.87H417.8l0.12,0.12-0.22,1.24L418,273l-0.22.25v0.62l0.12,0.74-0.12.12,0-1.49h0.12l-0.09,1.49v0.81l0.15,0.87h0.25V276.3l1.49,0.22,0.12-.12,3.78,0.19,0.5,0.5-0.09.74,0.12,0.12L424,279.18V281l-0.12-1.74,0.12,1.67-0.09.62v1a0.62,0.62,0,0,1-.71.37l-1.36,0-0.53-.12-0.77.19-0.37,0L420,282.9l-0.09.12-2.23,0-0.12.5,0.12,0.12V284l-0.12.37,0,0.25h0.12L417.65,288l0.15,7.31-0.12.12,0.12,0.12,0,2.11-0.25.25,0.12,0.12v0.25l-0.09.74,0.12,0.13-0.12-.93,0.06,3.47-0.09.74,0.12,0.12-0.12.62,0,1.74,0.87-.12,1,0,0.62,0.12,0.37-.12,0.5,0.06,0.37,0,0.5-.12q1.49,0.09,1.49.34l0.06,3.28,0.12,0.62-0.12.12,0,1.61-0.22.25,0.12,0.12v0.12c0,0.17-.12.25-0.37,0.25l-2.29-.06-0.37.13v-0.12l-0.12.13-0.62-.09-2.85.06-1.49.15v-0.12l-0.12.12-0.74-.12-1.24.15L413,311.5h-0.12l-0.5.12-0.5,0-0.25-.25-0.09-5.21,0.06-2-0.12-.37,0.28-5.08-0.12-.12,0.09-.62-0.19-9.92,0.12-.5-0.15-.5,0.25-.37-0.25-.25v-0.37l0.22-.37,0-2.85,0.12-.12-0.16-.12,0-1.86,0.12-.5-0.12-.12,0.09-1-0.12-.87,0.12-.12v-0.12l-0.15-.5,0.09-1.24-0.12-.87,0.09-.74-0.12-.12,0.12-.62,0-1.36,0.12-.12-0.12-.12,0.22-1.49-0.12-.62,0.09-.5-0.12-.37,0.16,1.36,0-1.12-0.25-.74,0.12-.12h0.12l-0.12-.12,0.19-1.86-0.12-.12h-0.12l0.09-1.24v-0.25l-0.12-.74,0.25-.37-0.16-.37,0.12-.5-0.25-.74c0.16,0,.24-0.12.22-0.37l-0.12-.37,0.12-.12h0.12l-0.12-.12V261l0.12-.12-0.16-.12v-0.12a3.33,3.33,0,0,1,.22-1.61l-0.12-.12v-0.25l0.5-.5q0.25,0,.25.34h0.12A0.63,0.63,0,0,1,413.28,258Z" transform="translate(-261.08 -108.24)"/><path class="c" d="M437.82,258.27l0.09,0.12,0.43-.12q4.93,0,6.66,6.69a22.37,22.37,0,0,1,.53,4.09v4.34q0,1.74-.65,1.74H444.7L444,275l-0.71.12-0.43-.12-0.31.12V275l-0.71.12-0.53-.12-0.4.12-0.31-.12-0.31.12V275l-0.22-.37,0.09-.12v-0.87L440,271.9l0.09-.12v-0.12l-0.09-.12,0.09-.5L440,267.25l-0.43-.25,0.12-.12v-0.12a3,3,0,0,0-.84-2q-1.89.37-1.89,1.74-0.31,0-.53,2.91l0.12,0.37-0.12.62,0.22,1.24-0.09.12a26.48,26.48,0,0,0,1.15,5.21,77,77,0,0,0,4.06,7.31l0.84,1.86,1.33,3.22a6.41,6.41,0,0,1,.62,2.23h0.22l-0.09.12a23.83,23.83,0,0,1,.71,4.34l0.22,0.25v0.12h-0.22l0.22,2.23-0.22.74,0.12,0.12v0.13l-0.12.12,0.12,0.12v0.25a7,7,0,0,1-.31,2.11l0.09,0.12v0.12L445,304v0.37h-0.22v0.37l-0.62,2a10.25,10.25,0,0,1-4.06,4.71h-0.22l-0.09-.12-0.74.37-0.09-.12-1.05.13H437.2a7.21,7.21,0,0,1-3-1.12l-1.58-1.36a11.35,11.35,0,0,1-1.55-3.1H431V306l0.09-.12v-0.12q-0.31,0-.31-1.36h-0.22v-1q0-.93-0.31-1l0.09-.12v-3l-0.09-.5,0.09-.5v-0.25l-0.09-.37,0.09-.62v-1.61l0.31-.37H431l0.4,0.12L432,295l0.09,0.12v0.12l0.84-.12,0.74,0.12,0.31-.12,0.09,0.12a2.8,2.8,0,0,0,1.46-.25q0.56,0,.71,1.12l-0.19.74,0.09,0.12v0.12l-0.09.12,0.09,0.62-0.09.5,0.09,0.37-0.09.12v0.12l0.09,0.5-0.09.62q0.37,4.9,1.24,4.9v0.37l0.12-.12h0.09l0.09,0.25,0.12-.12v-0.12l0.31,0.12a1.32,1.32,0,0,0,1.24-1.24,8.69,8.69,0,0,0,.74-3.29l-0.12-.5,0.12-.62-0.12-.37h0.22v-0.37a0.25,0.25,0,0,0-.31-0.25v-0.25l0.09,0.12H440a4.72,4.72,0,0,0-.31-1.74l0.09-.74q-0.25,0-.31-1H439.4v0.25h-0.12q-0.28-2.48-.84-2.48a1.11,1.11,0,0,0-.31-0.87c0-.25-0.06-0.37-0.19-0.37l0.09-.12v-0.25h-0.09v0.25h-0.12q0.31-1-1-2.85l-0.12-.12v-0.25q-0.4,0-.4-0.74a3.86,3.86,0,0,1-1-1.61q-0.87-1.42-1.55-2.6c-0.16,0-.27-0.21-0.31-0.62q-0.22,0-.93-2.11a4.15,4.15,0,0,0-.62-1.36V278.6q-0.28,0-.43-1.24l-0.09-.12h0.09a15.41,15.41,0,0,1-.71-4.83l-0.22-.37h0.22l-0.12-.62,0.22-2.85-0.09-.62q0.4,0,.4-1.74a13.39,13.39,0,0,1,2-5l0.09-.12a5.68,5.68,0,0,1,2.2-2Z" transform="translate(-261.08 -108.24)"/><path class="c" d="M458.58,258.27l0.09,0.12,0.43-.12q4.93,0,6.66,6.69a22.38,22.38,0,0,1,.53,4.09v4.34q0,1.74-.65,1.74h-0.19l-0.74-.12-0.71.12-0.43-.12-0.31.12V275l-0.71.12L462,275l-0.4.12-0.31-.12-0.31.12V275l-0.22-.37,0.09-.12v-0.87l-0.09-1.74,0.09-.12v-0.12l-0.09-.12,0.09-.5-0.09-3.78-0.43-.25,0.12-.12v-0.12a3,3,0,0,0-.84-2q-1.89.37-1.89,1.74-0.31,0-.53,2.91l0.12,0.37-0.12.62,0.22,1.24-0.09.12a26.47,26.47,0,0,0,1.15,5.21,77,77,0,0,0,4.06,7.31l0.84,1.86,1.33,3.22a6.41,6.41,0,0,1,.62,2.23h0.22l-0.09.12a23.82,23.82,0,0,1,.71,4.34l0.22,0.25v0.12h-0.22l0.22,2.23-0.22.74,0.12,0.12v0.13l-0.12.12,0.12,0.12v0.25a7,7,0,0,1-.31,2.11l0.09,0.12v0.12L465.77,304v0.37h-0.22v0.37l-0.62,2a10.25,10.25,0,0,1-4.06,4.71h-0.22l-0.09-.12-0.74.37-0.09-.12-1.05.13H458a7.21,7.21,0,0,1-3-1.12l-1.58-1.36a11.36,11.36,0,0,1-1.55-3.1h-0.09V306l0.09-.12v-0.12q-0.31,0-.31-1.36H451.3v-1a0.94,0.94,0,0,0-.31-1l0.09-.12v-3l-0.09-.5,0.09-.5v-0.25l-0.09-.37,0.09-.62v-1.61l0.31-.37h0.34l0.4,0.12,0.62-.25,0.09,0.12v0.12l0.84-.12,0.74,0.12,0.31-.12,0.09,0.12a2.8,2.8,0,0,0,1.46-.25q0.56,0,.71,1.12l-0.19.74,0.09,0.12v0.12l-0.09.12,0.09,0.62-0.09.5,0.09,0.37-0.09.12v0.12l0.09,0.5-0.09.62q0.37,4.9,1.24,4.9v0.37l0.12-.12h0.09l0.09,0.25,0.12-.12v-0.12l0.31,0.12a1.32,1.32,0,0,0,1.24-1.24,8.69,8.69,0,0,0,.74-3.29l-0.12-.5,0.12-.62-0.12-.37h0.22v-0.37a0.25,0.25,0,0,0-.31-0.25v-0.25l0.09,0.12h0.12a4.72,4.72,0,0,0-.31-1.74l0.09-.74q-0.25,0-.31-1h-0.09v0.25H460q-0.28-2.48-.84-2.48a1.11,1.11,0,0,0-.31-0.87c0-.25-0.06-0.37-0.19-0.37l0.09-.12v-0.25H458.7v0.25h-0.12q0.31-1-1-2.85l-0.12-.12v-0.25q-0.4,0-.4-0.74a3.86,3.86,0,0,1-1-1.61q-0.87-1.42-1.55-2.6c-0.17,0-.27-0.21-0.31-0.62q-0.22,0-.93-2.11a4.15,4.15,0,0,0-.62-1.36V278.6q-0.28,0-.43-1.24l-0.09-.12h0.09a15.41,15.41,0,0,1-.71-4.83L451.3,272h0.22l-0.12-.62,0.22-2.85-0.09-.62q0.4,0,.4-1.74a13.38,13.38,0,0,1,2-5l0.09-.12a5.68,5.68,0,0,1,2.2-2Z" transform="translate(-261.08 -108.24)"/><path class="c" d="M473.3,258.27h0.22l1.55,0.09,0.12-.12q4.8-.25,4.8.4l-0.09.12v0.12q0.22,0,.65,5.11l0.46,1.61v0.12l-0.12.12,0.46,5.08v0.25l-0.09.12,1.36,6.17v0.25l-0.09.12V278a12.89,12.89,0,0,1,.65,3.66l0.12,0.12v0.12l-0.12.12,0.12,0.12,0,0.37-0.12.12v0.12q0.25,0,.56,2.11h-0.12a8.54,8.54,0,0,1,.53,2.54l0.12,0,0-1.67,0.19-.37v-0.25l-0.09-.37,0.09-.62,0-1.74-0.09-.5,0.09-.5v1.18l-0.12-.5,0.09-.37-0.09-.37h0.09l-0.09-.12,0.09-.62v-1.24l0.12-.12-0.12-.12v-0.25l0.09-.62-0.09-.37,0.28-6.07-0.12-.12,0.12-.62,0-2.48,0.06-3-0.09-.5h0.09l-0.09-.37,0.09-.37-0.09-.5,0.06-1-0.09-.12,0.19-2.85h0.12l-0.12-.12v-0.25q0-1.12.78-1.12h1.86l1.49,0.09,0.74-.25a0.64,0.64,0,0,1,.56.34v0.37l-0.12.12,0.12,0.12V260l-0.12.12,0.12,0.12,0,0.62-0.12.62,0.12,0.74-0.12.74,0.12,0.12v0.12l-0.12.12v0.12l0.12,0.12v0.12l-0.09.12V264l0.22,0.5-0.22,1.12,0.09,0.62-0.06.87,0.09,0.37-0.22.25v0.12l0.12-.12h0.09l-0.09.62v1.36a3,3,0,0,1-.22,1.39l0.25,0.22v0.12l-0.25,1.15,0.12,0.09a1.77,1.77,0,0,1-.19,1l0.09,0.12v0.37l-0.09.5,0.22,1.21-0.19,1L490,277v0.12l-0.09.12v0.12l0.09,0.5-0.09.12,0.22,0.59L490,279l0.12,0.09v0.12l-0.22.9,0.09,0.5-0.09,1L490,282a1.66,1.66,0,0,1-.19,1l0.09,0.62v0.87l-0.19,2,0.12,0.37-0.22,2.48,0.12,1.12-0.12.5,0.12,0.12-0.09,1.24V294l0.15,0.62-0.12.74,0,2.85-0.22.25,0.12,0.12v0.25l-0.12.12,0.12,0.12-0.12,1.24,0,0.12,0.09,0.74-0.09.5V302h0.09l-0.09.87,0,0.87-0.09,3.6,0.12,0.12-0.12.62,0,2.85a0.75,0.75,0,0,1-.9.74l-5,.16h-0.53q-0.43,0-1.74-9.64l0.12-.12V301.9a47.92,47.92,0,0,1-1.08-7.22l-0.5-2.17-0.09-.09v-0.25l0.09-.15v-0.12l-0.22-.22,0.12-.12v-0.12q-1.61-10.63-1.64-11.9l0.12-.12-0.12-.12h-0.09l0,1.24-0.12,1,0.12-.59v1.24l-0.09.12,0.09,0.12q-0.22,2.11-.16,9.51l-0.12.12,0.12,0.12-0.12.87,0,1.3,0,4-0.12.12,0.12,0.12H477.7l0.12,0.12-0.12.62,0,1.86-0.12.12,0.12,0.13v1.73l-0.12.13,0.12,0.12-0.06,4v1.36l-0.12.5,0.15,0.5q0,2-.43,2l-0.12-.37H477q0,0.37-.22.37l-3.47.06-0.77.13a3.9,3.9,0,0,1-.34-2l0.09-.5-0.12-.12v-0.12l0.12-.87-0.12-.12,0.12-.62,0-2.23,0.09-.12-0.09-.12,0.09-.62v-0.87l0.09-.12-0.12-.12V302.3l0.12-.12-0.12-.12,0.12-.62,0-3.72,0.09-1.39-0.12-.09,0.12-1.27,0-1.74-0.12-.34,0.12-.65,0-3.35,0.22-.25-0.09-.12,0.06-1.24V286.4l-0.09-.5,0.19-1.74-0.12-.87,0-3.1,0.12-.12-0.12-.12,0.09-1.24v-0.87a32.81,32.81,0,0,1,.19-5.08v-0.25h-0.12l0.09-3.35-0.06-7.31,0.09-.12-0.09-.12v-0.12l0.09-.5-0.09-.12v-0.12l0.19-1.24-0.09-.12v-0.12C472.95,258.6,473.09,258.27,473.3,258.27Z" transform="translate(-261.08 -108.24)"/><path class="c" d="M500.69,258l0.74,0.22,1-.12,0.37,0.12,0.12-.15v-0.12l1,0.25,0.25-.25,0.87,0.22,2-.15h0.5l0.74,0.09,0.12-.12q2.66,0.09,2.66.56v0.25l-0.22.37,0.25,0.25,0.06,4.59a1,1,0,0,1-1,.5l-0.16-.12-0.59.16h-0.62l-1-.09,0,0.12-0.25,0-0.16-.12h-0.12q0,0.37-.46.37l0.81-.22-1.49,0a0.66,0.66,0,0,0-.74.74l0.12,1.3-0.12.12,0,0.37h0.12l-0.12.87,0,0.06,0.16,0.5-0.25,1.12,0.12,0.12,0,0.5-0.12.12v0.12l0.12,0.12h0.12l-0.4-1.12v0.12l0.15,0.87h-0.12l0.12,0.12-0.22,1.24,0.25,1.12-0.22.25v0.62l0.12,0.74-0.12.12,0-1.49h0.12l-0.09,1.49v0.81l0.16,0.87h0.25V276.3l1.49,0.22,0.12-.12,3.78,0.19,0.5,0.5-0.09.74,0.12,0.12-0.09,1.24V281l-0.12-1.74,0.12,1.67-0.09.62v1a0.62,0.62,0,0,1-.71.37l-1.36,0-0.53-.12L508,283l-0.37,0-0.16-.12-0.09.12-2.23,0-0.12.5,0.12,0.12V284l-0.12.37,0,0.25h0.12L505.06,288l0.15,7.31-0.12.12,0.12,0.12,0,2.11-0.25.25,0.12,0.12v0.25L505,299l0.12,0.13-0.12-.93,0.06,3.47-0.09.74,0.12,0.12-0.12.62,0,1.74,0.87-.12,1,0,0.62,0.12,0.37-.12,0.5,0.06,0.37,0,0.5-.12q1.49,0.09,1.49.34l0.06,3.28,0.12,0.62-0.12.12,0,1.61-0.22.25,0.12,0.12v0.12c0,0.17-.12.25-0.37,0.25l-2.29-.06-0.37.13v-0.12l-0.12.13-0.62-.09-2.85.06-1.49.15v-0.12l-0.12.12-0.74-.12-1.24.15-0.12-.12h-0.12l-0.5.12-0.5,0-0.25-.25-0.09-5.21,0.06-2-0.12-.37,0.28-5.08-0.12-.12,0.09-.62-0.19-9.92,0.12-.5-0.16-.5,0.25-.37-0.25-.25v-0.37l0.22-.37,0-2.85,0.12-.12-0.15-.12,0-1.86,0.12-.5-0.12-.12,0.09-1-0.12-.87,0.12-.12v-0.12l-0.15-.5,0.09-1.24-0.12-.87,0.09-.74-0.12-.12L499,274l0-1.36,0.12-.12-0.12-.12,0.22-1.49-0.12-.62,0.09-.5-0.12-.37,0.15,1.36,0-1.12-0.25-.74,0.12-.12h0.12l-0.12-.12,0.19-1.86-0.12-.12H499l0.09-1.24v-0.25l-0.12-.74,0.25-.37-0.15-.37,0.12-.5-0.25-.74q0.25,0,.22-0.37l-0.12-.37,0.12-.12h0.12l-0.12-.12V261l0.12-.12-0.16-.12v-0.12a3.34,3.34,0,0,1,.22-1.61l-0.12-.12v-0.25l0.5-.5q0.25,0,.25.34h0.12A0.63,0.63,0,0,1,500.69,258Z" transform="translate(-261.08 -108.24)"/><path class="c" d="M525.23,258.27l0.09,0.12,0.43-.12q4.93,0,6.66,6.69a22.37,22.37,0,0,1,.53,4.09v4.34q0,1.74-.65,1.74h-0.19l-0.74-.12-0.71.12-0.43-.12-0.31.12V275l-0.71.12-0.53-.12-0.4.12L528,275l-0.31.12V275l-0.22-.37,0.09-.12v-0.87l-0.09-1.74,0.09-.12v-0.12l-0.09-.12,0.09-.5-0.09-3.78L527,267l0.12-.12v-0.12a3,3,0,0,0-.84-2q-1.89.37-1.89,1.74-0.31,0-.53,2.91l0.12,0.37-0.12.62,0.22,1.24-0.09.12a26.48,26.48,0,0,0,1.15,5.21,77,77,0,0,0,4.06,7.31l0.84,1.86,1.33,3.22a6.41,6.41,0,0,1,.62,2.23h0.22l-0.09.12a23.82,23.82,0,0,1,.71,4.34l0.22,0.25v0.12h-0.22l0.22,2.23-0.22.74,0.12,0.12v0.13l-0.12.12,0.12,0.12v0.25a7,7,0,0,1-.31,2.11l0.09,0.12v0.12L532.42,304v0.37h-0.22v0.37l-0.62,2a10.25,10.25,0,0,1-4.06,4.71h-0.22l-0.09-.12-0.74.37-0.09-.12-1.05.13h-0.71a7.21,7.21,0,0,1-3-1.12L520,309.21a11.36,11.36,0,0,1-1.55-3.1h-0.09V306l0.09-.12v-0.12q-0.31,0-.31-1.36H518v-1a0.94,0.94,0,0,0-.31-1l0.09-.12v-3l-0.09-.5,0.09-.5v-0.25l-0.09-.37,0.09-.62v-1.61l0.31-.37h0.34l0.4,0.12,0.62-.25,0.09,0.12v0.12l0.84-.12,0.74,0.12,0.31-.12,0.09,0.12a2.8,2.8,0,0,0,1.46-.25q0.56,0,.71,1.12l-0.19.74,0.09,0.12v0.12l-0.09.12,0.09,0.62-0.09.5,0.09,0.37-0.09.12v0.12l0.09,0.5-0.09.62q0.37,4.9,1.24,4.9v0.37l0.12-.12h0.09l0.09,0.25,0.12-.12v-0.12l0.31,0.12a1.32,1.32,0,0,0,1.24-1.24,8.69,8.69,0,0,0,.74-3.29l-0.12-.5,0.12-.62-0.12-.37h0.22v-0.37a0.25,0.25,0,0,0-.31-0.25v-0.25l0.09,0.12h0.12a4.72,4.72,0,0,0-.31-1.74l0.09-.74q-0.25,0-.31-1h-0.09v0.25h-0.12q-0.28-2.48-.84-2.48a1.11,1.11,0,0,0-.31-0.87c0-.25-0.06-0.37-0.19-0.37l0.09-.12v-0.25h-0.09v0.25h-0.12q0.31-1-1-2.85l-0.12-.12v-0.25q-0.4,0-.4-0.74a3.85,3.85,0,0,1-1-1.61q-0.87-1.42-1.55-2.6c-0.17,0-.27-0.21-0.31-0.62q-0.22,0-.93-2.11a4.15,4.15,0,0,0-.62-1.36V278.6q-0.28,0-.43-1.24l-0.09-.12h0.09a15.41,15.41,0,0,1-.71-4.83L518,272h0.22l-0.12-.62,0.22-2.85-0.09-.62q0.4,0,.4-1.74a13.38,13.38,0,0,1,2-5l0.09-.12a5.68,5.68,0,0,1,2.2-2Z" transform="translate(-261.08 -108.24)"/><path class="c" d="M546,258.27l0.09,0.12,0.43-.12q4.93,0,6.66,6.69a22.37,22.37,0,0,1,.53,4.09v4.34q0,1.74-.65,1.74h-0.19l-0.74-.12-0.71.12L551,275l-0.31.12V275l-0.71.12-0.53-.12-0.4.12-0.31-.12-0.31.12V275l-0.22-.37,0.09-.12v-0.87l-0.09-1.74,0.09-.12v-0.12l-0.09-.12,0.09-.5-0.09-3.78-0.43-.25,0.12-.12v-0.12a3,3,0,0,0-.84-2q-1.89.37-1.89,1.74-0.31,0-.53,2.91l0.12,0.37-0.12.62,0.22,1.24-0.09.12A26.48,26.48,0,0,0,545.9,277,77,77,0,0,0,550,284.3l0.84,1.86,1.33,3.22a6.41,6.41,0,0,1,.62,2.23H553l-0.09.12a23.82,23.82,0,0,1,.71,4.34l0.22,0.25v0.12h-0.22l0.22,2.23-0.22.74,0.12,0.12v0.13l-0.12.12,0.12,0.12v0.25a7,7,0,0,1-.31,2.11l0.09,0.12v0.12L553.18,304v0.37H553v0.37l-0.62,2a10.25,10.25,0,0,1-4.06,4.71h-0.22l-0.09-.12-0.74.37-0.09-.12-1.05.13h-0.71a7.21,7.21,0,0,1-3-1.12l-1.58-1.36a11.36,11.36,0,0,1-1.55-3.1h-0.09V306l0.09-.12v-0.12q-0.31,0-.31-1.36h-0.22v-1a0.94,0.94,0,0,0-.31-1l0.09-.12v-3l-0.09-.5,0.09-.5v-0.25l-0.09-.37,0.09-.62v-1.61l0.31-.37h0.34l0.4,0.12,0.62-.25,0.09,0.12v0.12l0.84-.12,0.74,0.12,0.31-.12,0.09,0.12a2.8,2.8,0,0,0,1.46-.25q0.56,0,.71,1.12l-0.19.74,0.09,0.12v0.12l-0.09.12,0.09,0.62-0.09.5,0.09,0.37-0.09.12v0.12l0.09,0.5-0.09.62q0.37,4.9,1.24,4.9v0.37l0.12-.12h0.09l0.09,0.25,0.12-.12v-0.12l0.31,0.12a1.32,1.32,0,0,0,1.24-1.24,8.69,8.69,0,0,0,.74-3.29l-0.12-.5,0.12-.62-0.12-.37h0.22v-0.37a0.25,0.25,0,0,0-.31-0.25v-0.25l0.09,0.12h0.12a4.72,4.72,0,0,0-.31-1.74l0.09-.74q-0.25,0-.31-1h-0.09v0.25h-0.12q-0.28-2.48-.84-2.48a1.11,1.11,0,0,0-.31-0.87c0-.25-0.06-0.37-0.19-0.37l0.09-.12v-0.25h-0.09v0.25H546q0.31-1-1-2.85l-0.12-.12v-0.25q-0.4,0-.4-0.74a3.86,3.86,0,0,1-1-1.61q-0.87-1.42-1.55-2.6c-0.17,0-.27-0.21-0.31-0.62q-0.22,0-.93-2.11a4.15,4.15,0,0,0-.62-1.36V278.6q-0.28,0-.43-1.24l-0.09-.12h0.09a15.41,15.41,0,0,1-.71-4.83l-0.22-.37h0.22l-0.12-.62,0.22-2.85-0.09-.62q0.4,0,.4-1.74a13.38,13.38,0,0,1,2-5l0.09-.12a5.68,5.68,0,0,1,2.2-2Z" transform="translate(-261.08 -108.24)"/></g><circle class="d" cx="159.87" cy="175.35" r="157.86"/><polygon class="e" points="310.05 262.44 159.87 349.15 9.68 262.44 9.68 89.01 159.87 2.31 310.05 89.01 310.05 262.44"/><line class="f" x1="22.78" y1="140.05" x2="299.97" y2="140.05"/><line class="f" x1="22.78" y1="212.79" x2="299.97" y2="212.79"/></svg>