<?xml version="1.0" encoding="utf-8"?>
<!-- Generator: Adobe Illustrator 19.2.1, SVG Export Plug-In . SVG Version: 6.00 Build 0)  -->
<svg version="1.1" id="pledge" xmlns="http://www.w3.org/2000/svg" xmlns:xlink="http://www.w3.org/1999/xlink" x="0px" y="0px"
	 viewBox="0 0 166.3341 156.25" enable-background="new 0 0 166.3341 156.25" xml:space="preserve">
<path fill="#005777" d="M112.1074,156.25H7.4225C3.3232,156.25,0,152.9268,0,148.8275V7.4225C0,3.3232,3.3232,0,7.4225,0h104.6849
	c4.0993,0,7.4225,3.3232,7.4225,7.4225v141.405C119.5299,152.9268,116.2068,156.25,112.1074,156.25z"/>
<rect x="6.3555" y="7.2956" fill="#FFFFFF" width="106" height="142"/>
<rect x="16.8555" y="24.2956" fill="#939598" width="49.5" height="6.5"/>
<rect x="16.8555" y="93.6289" fill="#939598" width="49.5" height="6.5"/>
<rect x="16.8555" y="43.7956" fill="#939598" width="21.7285" height="6.5"/>
<rect x="16.8555" y="77.7123" fill="#939598" width="13.5156" height="6.5"/>
<rect x="86.8555" y="77.7123" fill="#939598" width="13.5156" height="6.5"/>
<rect x="36.8555" y="77.7123" fill="#939598" width="42.6068" height="6.5"/>
<rect x="45.9912" y="43.7956" fill="#939598" width="21.7285" height="6.5"/>
<rect x="73.9912" y="43.7956" fill="#939598" width="27.6475" height="6.5"/>
<rect x="74.0273" y="24.2956" fill="#939598" width="27.3281" height="6.5"/>
<rect x="55.4355" y="61.0456" fill="#939598" width="45.9199" height="6.5"/>
<rect x="17.4355" y="61.0456" fill="#939598" width="32.4629" height="6.5"/>
<polyline fill="none" stroke="#00ADEE" stroke-width="2" stroke-miterlimit="10" points="16.3555,133.6289 27.6888,115.9623 
	34.6888,127.9623 43.0221,118.9623 50.0221,128.2956 59.0221,121.6289 69.6888,128.6289 "/>
<path opacity="0.43" fill="#002B3C" d="M112.1074,0h-53.752v156.25h53.752c4.0994,0,7.4225-3.3232,7.4225-7.4225V7.4225
	C119.53,3.3232,116.2068,0,112.1074,0z"/>
<g>
	<g>
		
			<rect x="70.9993" y="80.6348" transform="matrix(0.7071 -0.7071 0.7071 0.7071 -30.315 110.3444)" fill="#FFCA05" width="94.081" height="22.2617"/>
		
			<rect x="149.5694" y="43.8953" transform="matrix(0.7071 -0.7071 0.7071 0.7071 6.4242 125.5618)" fill="#F69A7E" width="10.42" height="22.2617"/>
		<polygon fill="#FFDCAD" points="76.9142,132.8913 92.6556,132.8913 76.9142,117.1499 		"/>
		<polygon fill="#48484A" points="76.9142,132.8913 82.341,132.8913 76.9142,127.4645 		"/>
	</g>
	<polygon fill="#E6BC81" points="76.9411,132.8913 92.6556,132.8913 84.7984,125.0341 	"/>
	
		<rect x="74.9415" y="90.1519" transform="matrix(0.7071 -0.7071 0.7071 0.7071 -31.9479 114.287)" fill="#F9A51A" width="94.081" height="11.1118"/>
	<polygon fill="#323031" points="76.9411,132.8913 82.3411,132.8913 79.6411,130.1914 	"/>
	
		<rect x="153.5115" y="53.4124" transform="matrix(0.7071 -0.7071 0.7071 0.7071 4.7916 129.5044)" fill="#EC1C24" width="10.4199" height="11.1118"/>
</g>
</svg>
