<?xml version="1.0" encoding="utf-8"?>
<!-- Generator: Adobe Illustrator 19.2.1, SVG Export Plug-In . SVG Version: 6.00 Build 0)  -->
<svg version="1.1" id="print" xmlns="http://www.w3.org/2000/svg" xmlns:xlink="http://www.w3.org/1999/xlink" x="0px" y="0px"
	 viewBox="0 0 52 52" enable-background="new 0 0 52 52" xml:space="preserve">
<path fill="#FFFFFF" d="M26,0C11.6406,0,0,11.6406,0,26c0,14.3594,11.6406,26,26,26s26-11.6406,26-26C52,11.6406,40.3594,0,26,0z
	 M32.4114,40.1983H19.5886V30.909h12.8228V40.1983z M40.374,32.8802c0,0.7099-0.5807,1.2907-1.2906,1.2907H34.208v-3.7683
	c0-0.7099-0.5808-1.2906-1.2906-1.2906H18.8782c-0.7099,0-1.2906,0.5807-1.2906,1.2906v3.7683h-4.6709
	c-0.7099,0-1.2906-0.5808-1.2906-1.2907V21.8541c0-0.7098,0.5807-1.2906,1.2906-1.2906h6.672v-9.5634h12.8228v9.5634h6.672
	c0.7099,0,1.2906,0.5808,1.2906,1.2906V32.8802z"/>
</svg>
