<?xml version="1.0" encoding="utf-8"?>
<!-- Generator: Adobe Illustrator 19.2.1, SVG Export Plug-In . SVG Version: 6.00 Build 0)  -->
<svg version="1.1" id="twitter-purple" xmlns="http://www.w3.org/2000/svg" xmlns:xlink="http://www.w3.org/1999/xlink" x="0px"
	 y="0px" viewBox="0 0 34.0161 34.0156" enable-background="new 0 0 34.0161 34.0156" xml:space="preserve">
<path fill="#595084" d="M17.0083,0C7.6148,0,0,7.6152,0,17.0078c0,9.3936,7.6148,17.0078,17.0083,17.0078
	c9.3931,0,17.0078-7.6142,17.0078-17.0078C34.0161,7.6152,26.4014,0,17.0083,0z M23.7974,14.3618
	c0.0063,0.149,0.0093,0.3003,0.0093,0.4522c0,4.6196-3.5147,9.9448-9.9449,9.9448c-1.9736,0-3.811-0.5791-5.3579-1.5698
	c0.273,0.0327,0.5518,0.0483,0.834,0.0483c1.6372,0,3.1446-0.5586,4.3408-1.4966c-1.5297-0.0268-2.8203-1.0381-3.2646-2.4262
	c0.2124,0.041,0.4321,0.062,0.6572,0.062c0.3194,0,0.6279-0.041,0.9214-0.1231c-1.6001-0.3203-2.8047-1.7329-2.8047-3.4272v-0.043
	c0.4717,0.2603,1.0112,0.419,1.584,0.4365c-0.938-0.6274-1.5552-1.6977-1.5552-2.9091c0-0.6407,0.1724-1.2408,0.4732-1.7588
	c1.7251,2.1162,4.2998,3.5063,7.2046,3.6523c-0.0601-0.2554-0.0899-0.5215-0.0899-0.7959c0-1.9297,1.565-3.4951,3.4942-3.4951
	c1.0058,0,1.915,0.4243,2.5512,1.1035c0.7974-0.1562,1.5445-0.4468,2.2202-0.8472c-0.2602,0.816-0.8144,1.5005-1.5366,1.9331
	c0.7066-0.0844,1.3809-0.2724,2.0073-0.5502C25.0738,13.2529,24.4805,13.8687,23.7974,14.3618z"/>
</svg>
